/* XPM */
static char *_4819d40764249f488dd0fb4597a626dF0UqSjDsWaEpR7hy[] = {
/* columns rows colors chars-per-pixel */
"60 60 208 2 ",
"   c #55575B",
".  c #5E605F",
"X  c #4F546A",
"o  c #5D5C67",
"O  c #595A6D",
"+  c #535567",
"@  c #5A5874",
"#  c #645B7A",
"$  c #5B627C",
"%  c #61686C",
"&  c #626471",
"*  c #696A77",
"=  c #717F7F",
"-  c #F6BA62",
";  c #FECC5B",
":  c #F6C870",
">  c #585584",
",  c #5F7684",
"<  c #62768F",
"1  c #747480",
"2  c #666585",
"3  c #7C828E",
"4  c #189FCF",
"5  c #169FD5",
"6  c #0DA4CE",
"7  c #0FA8CA",
"8  c #11A4CF",
"9  c #18A1CB",
"0  c #0EA5D3",
"q  c #0EA9D3",
"w  c #0AAADB",
"e  c #13A6D5",
"r  c #19A4D6",
"t  c #13A9D5",
"y  c #1AAAD4",
"u  c #14A6DA",
"i  c #1AA5DA",
"p  c #14A9DA",
"a  c #1AAFDA",
"s  c #31AFDF",
"d  c #29B7DF",
"f  c #16ACE1",
"g  c #1AAEE4",
"h  c #1DAFE8",
"j  c #1CB3E7",
"k  c #14BAE6",
"l  c #1DB4ED",
"z  c #1AB9EC",
"x  c #16B8E8",
"c  c #1EB4F1",
"v  c #14B7F7",
"b  c #22AEEF",
"n  c #21B4ED",
"m  c #33B1E1",
"M  c #38B8E6",
"N  c #24AEF8",
"B  c #21B5F2",
"V  c #24B8F6",
"C  c #21B6F9",
"Z  c #5FBCDE",
"A  c #6FAECD",
"S  c #75A9C9",
"D  c #6DB1C4",
"F  c #75B7CF",
"G  c #6FBDD3",
"H  c #70B2D2",
"J  c #4CBBE7",
"K  c #4ABFEB",
"L  c #42B8EA",
"P  c #5BBAE3",
"I  c #5BBEED",
"U  c #56BEE1",
"Y  c #4CBEF0",
"T  c #58BFF1",
"R  c #64BFEE",
"E  c #61BCF1",
"W  c #24CCFC",
"Q  c #2BCBFA",
"!  c #2DCFF5",
"~  c #31C0F8",
"^  c #35C8EA",
"/  c #7BC6DE",
"(  c #4BC0EB",
")  c #5ACBEC",
"_  c #5DC2EC",
"`  c #50C0F2",
"'  c #58C1F1",
"]  c #6CCBEE",
"[  c #64C8EC",
"{  c #73CBED",
"}  c #7FD5EE",
"|  c #68C8F7",
" . c #7FCEF7",
".. c #76CAF7",
"X. c #6AD3F5",
"o. c #6BD2F6",
"O. c #7BD5F7",
"+. c #74D4FD",
"@. c #7FD2FE",
"#. c #7CDAFC",
"$. c #72D5F5",
"%. c #90988D",
"&. c #838895",
"*. c #8E8C9D",
"=. c #858496",
"-. c #8E949A",
";. c #8F9490",
":. c #999A93",
">. c #95989D",
",. c #87848B",
"<. c #9696A0",
"1. c #988EB1",
"2. c #9D95B3",
"3. c #8A89A8",
"4. c #A5A5AD",
"5. c #DED18B",
"6. c #E6CD89",
"7. c #EDD483",
"8. c #F1D58E",
"9. c #F3D788",
"0. c #ECCC98",
"q. c #F0CE9E",
"w. c #EBD697",
"e. c #F7D398",
"r. c #E4DEA0",
"t. c #F8DAAB",
"y. c #FFDDB3",
"u. c #F0DBB0",
"i. c #FBE6A8",
"p. c #F4E2BC",
"a. c #FCE7B5",
"s. c #82BFDB",
"d. c #86CDE9",
"f. c #96CEE5",
"g. c #89D3ED",
"h. c #89D5EB",
"j. c #94D3EC",
"k. c #9AD2E9",
"l. c #83CDF3",
"z. c #84CCFD",
"x. c #8ACEF5",
"c. c #9ACFFB",
"v. c #84D2F4",
"b. c #8DD5F4",
"n. c #8CDAF3",
"m. c #83D2FA",
"M. c #8BD5FA",
"N. c #8CDAFD",
"B. c #87D9F1",
"V. c #94D5F5",
"C. c #99D5F4",
"Z. c #93D9F5",
"A. c #9DDBF3",
"S. c #92D7F9",
"D. c #98D4FA",
"F. c #94DAFC",
"G. c #9BDBFB",
"H. c #A2D6EE",
"J. c #A2D9FE",
"K. c #AAD6FB",
"L. c #B5DCF7",
"P. c #8DE1FB",
"I. c #90E0FF",
"U. c #9BE3FB",
"Y. c #A8E4F6",
"T. c #B5E4FA",
"R. c #BAE6F9",
"E. c #E9D7C5",
"W. c #E5DED8",
"Q. c #F7F3CE",
"!. c #EAE5DC",
"~. c #FFF5D6",
"^. c #F8E8C6",
"/. c #C2DBEF",
"(. c #D5E3EC",
"). c #DAE2E9",
"_. c #C6E9FC",
"`. c #CAEDFF",
"'. c #D5EAF3",
"]. c #CDF4FD",
"[. c #D1F1FF",
"{. c #E2E6E3",
"}. c #EBEAEC",
"|. c #E8E8E9",
" X c #F2ECEE",
".X c #FCE7E7",
"XX c #FAF4E2",
"oX c #F3F3EB",
"OX c #FFF3EB",
"+X c #F2FEEC",
"@X c #FDFDEB",
"#X c #F8FCE5",
"$X c #ECEAF3",
"%X c #E1E2F7",
"&X c #FDEEF3",
"*X c #E5F5FA",
"=X c #EBF4FB",
"-X c #E5FBFE",
";X c #ECFAFB",
":X c #EEF3F7",
">X c #F5F5F5",
",X c #FEF7F5",
"<X c #F5FCF5",
"1X c #FCFDF6",
"2X c #F3F3FE",
"3X c #FEF5FD",
"4X c #F4FCFD",
"5X c #FEFEFE00",
/* pixels */
"5X5X5X5X5X5X5X5X5X5X5X5X5X5X5X5X5X5X5X5X5X5X5X5X5X5X5X5X5X5X5X5X5X5X5X5X5X5X5X5X5X5X5X5X5X5X5X5X5X5X5X5X5X5X5X5X5X5X5X5X",
"5X5X5X5X5X5X5X5X5X5X5X5X5X5X5X5X5X5X5X5X5X5X5X5X5X5X5X5X5X5X5X5X5X5X5X5X5X5X5X5X5X5X5X5X5X5X5X5X5X5X5X5X5X5X5X5X5X5X5X5X",
"5X5X5X5X5X5X5X5X5X5X5X5X5X5X5X5X5X5X5X5X5X5X5X5X5X5X5X5X5X5X5X5X5X5X5X5X5X5X5X5X5X5X5X5X5X5X5X5X5X5X5X5X5X5X5X5X5X5X5X5X",
"5X5X5X5X5X5X5X5X5X5X5X5X5X5X5X5X5X5X5X5X5X5X5X5X5X5X5X5X5X5X5X5X5X5X5X5X5X5X5X5X5X5X5X5X5X5X5X5X5X5X5X5X5X5X5X5X5X5X5X5X",
"5X5X5X5X5X5X5X5X5X5X5X5X5X5X5X5X5X5X5X5X5X5X5X5X5X5XX   * ,.3.$ + o *.5X5X5X1X5X5X5X5X5X5X5X5X5X5X5X5X5X5X5X5X5X5X5X5X5X",
"5X5X5X5X5X5X5X5X5X5X5X5X5X5X5X5X5X5X5X5X5X5X5X5X5X:.o > * &.*.# O & >.5X5X5X5X5X5X5X5X5X5X5X5X5X5X5X5X5X5X5X5X5X5X5X5X5X",
"5X5X5X5X5X5X5X5X5X5X5X5X5X5X5X5X5X5X5X5X5X5X5X5X<X%.. o 2 &.-.% + & -.5X5X5X5X5X5X5X5X5X5X5X5X5X5X5X5X5X5X5X5X5X5X5X5X5X",
"5X5X5X5X5X5X5X5X5X5X5X5X5X5X5X5X5X5X~.w.5X&Xe.1X3X1.@ X & =.*.O + & >.5X5X5X5X5X5X5X5X5X5X5X5X5X5X5X5X5X5X5X5X5X5X5X5X5X",
"5X5X5X5X5X5X5X5X5X5X5X5X5X5X5X5X5X5X5X5X5X5X5X5X5X].D H A F s.S S G *X5X5X5X5X5X5X5X5X5X5X5X5X5X5X5X5X5X5X5X5X5X5X5X5X5X",
"5X5X5X5X5X5X5X5X5X5X5X5X5X5X5X5X5X5X5X5X5X5X5X5X5X].{ +.+.| [ o.o.$.-X5X5X;X5X5X5X5X5X5X5X5X5X5X5X5X5X5X5X5X5X5X5X5X5X5X",
"5X5X5X5X5X5X5X5X5X5X5X5X5X5X5X5X5X5X5X5X5X5X5X5X-Xh.U ' E [ _ _ T T / =X5X5X5X5X5X5X5X5X5X5X5X5X5X5X5X5X5X5X5X5X5X5X5X5X",
"5X5X5X5X5X5X5X5X5X5X5X5X5X5X5X5X5X5X5X5X5X5X5X5X{ Z O.Z.Z.G.I.M.F.z.) d.4X5X5X5X5X5X5X5X5X5X5X5X5X5X5X5X5X5X5X5X5X5X5X5X",
"5X5X5X5X5X5X5X5X5X5X5X5X5X5X5X5X5X5X5X5X5X5X5XL.] N.G.j.H.j.V.F.b.J.U.P T.5X5X5X5X5X5X5X5X5X5X5X5X5X5X5X5X5X5X5X5X5X5X5X",
"5X5X5X5X5X5X5X5X5X5X5X5X5X5X5X5X5X5X5X5X5X5X5Xb.b.F.b.O.F.D.D.n.b.Y.*XG.m.5X5X5X5X5X5X5X5X5X5X5X5X5X5X5X5X5X5X5X5X5X5X5X",
"5X5X5X5X5X5X5X5X5X5X5X5X5X5X5X5X5X5X5X5X5X5X*X} F.b.n.N.N.D.J.S.F.g.oXT. .2X5X5X5X5X5X5X5X5X5X5X5X5X5X5X5X5X5X5X5X5X5X5X",
"5X5X5X5X5X5X5X5X5X5X5X5X5X5X5X5X5X5X5X5X5X5X5XN.N.D.K.C.B.n.b.b.n.D.>X].g.;X5X5X5X5X5X5X5X5X5X5X5X5X5X5X5X5X5X5X5X5X5X5X",
"5X5X5X5X5X5X5X5X5X5X5X5X5X5X5X5X5X5X5X5X5X5X5Xn.S.S.S.Z.S.Z.S.S.Z.b.[.>XV.;X5X5X5X5X5X5X5X5X5X5X5X5X5X5X5X5X5X5X5X5X5X5X",
"5X5X5X5X5X5X5X5X5X5X5X5X5X5X5X5X5X5X5X5X5X5X5XZ.S.S.S.S.S.M.S.S.Z.v.].>XZ.;X5X1X5X5X5X5X5X5X5X5X5X5X5X5X5X5X5X5X5X5X5X5X",
"5X5X5X5X5X5X5X5X5X5X5X5X5X5X5X5X5X5X5X5X5X5X5XZ.S.S.Z.S.S.S.S.Z.Z.b.`.4XG.;X5X5X5X5X5X5X5X5X5X5X5X5X5X5X5X5X5X5X5X5X5X5X",
"5X5X5X5X5X5X5X5X5X5X5X5X5X5X5X5X5X5X5X5X5X5X5XS.S.S.S.S.S.S.S.S.S.v._.4XG.:X5X5X5X5X5X5X5X5X5X5X5X5X5X5X5X5X5X5X5X5X5X5X",
"5X5X5X5X5X5X5X5X5X5X5X5X5X5X5X5X5X5X5X5X4X5X5Xn.S.S.S.S.Z.S.S.S.S.B.R.4XG.;X5X5X5X5X5X5X5X5X5X5X5X5X5X5X5X5X5X5X5X5X5X5X",
"5X5X5X5X5X5X5X5X5X5X5X5X5X5X5X5X5X5X5X5X5X5X5XZ.S.Z.S.S.S.S.S.Z.S.v.T.4XD.<X5X5X5X5X5X5X5X5X5X5X5X5X5X5X5X5X5X5X5X5X5X5X",
"5X5X5X5X5X5X5X5X5X5X5X5X5X5X5X5X5X5X5X5X5X5X5Xn.S.S.S.S.S.S.M.S.D.v.Y.;XV.4X5X1X5X5X5X5X5X5X5X5X5X5X5X5X5X5X5X5X5X5X5X5X",
"5X5X5X5X5X5X5X5X5X5X5X5X5X5X5X5X5X5X5X1X5X5X5XZ.S.n.Z.S.S.S.S.Z.V.v.T.=XV.4X5X5X5X5X5X5X5X5X5X5X5X5X5X5X5X5X5X5X5X5X5X5X",
"5X5X5X5X5X5X5X5X5X5X5X5X5X5X5X5X5X5X5X5X5X5X5XS.S.Z.Z.S.Z.V.V.C.S.C.K._.S.2X1X5X5X5X5X5X5X5X5X5X5X5X5X5X5X5X5X5X5X5X5X5X",
"5X5X5X5X5X5X5X5X5X5X5X5X5X5X5X5X5X5X5X1X5X3X5XS.S.D.S.S.F.F.F.D.P.B.S.A.n.4X5X5X5X5X5X5X5X5X5X5X5X5X5X5X5X5X5X5X5X5X5X5X",
"5X5X5X5X5X5X5X5X5X5X5X5X5X5X5X5X5X5X5X5X5X5X5XM.D.V.S.G.S.M.F.S.N.S.D.G.V.2X5X4X5X5X5X5X5X5X5X5X5X5X5X5X5X5X5X5X5X5X5X5X",
"5X5X5X5X5X5X5X5X5X5X5X5X5X5X5X5X5X5X5X5X5X5X5XM.#.O.$.X.X.X.o.o.o.+.@.#.G.4X1X4X5X5X5X5X5X5X5X5X5X5X5X5X5X5X5X5X5X5X5X5X",
"5X5X5X5X5X5X5X5X5X5X5X5X5X5X5X5X1X5X5X5X5X5X5Xb.Q Q Q W W W W W W ! ~ ^ m.4X5X5X5X5X5X5X5X5X5X5X5X5X5X5X5X5X5X5X5X5X5X5X",
"5X5X5X5X5X5X5X5X5X5X5X5X5X5X5X5X5X5X5X5X5X5X;Xv.b b b C c C C C v k v k m.4X5X1X5X5X5X5X5X5X5X5X5X5X5X5X5X5X5X5X5X5X5X5X",
"5X5X5X5X5X5X5X5X5X5X5X5X5X5X5X5X5X5X5X5X5X5X;Xv.j j z z z z z z B n N x x.4X5X1X5X5X5X5X5X5X5X5X5X5X5X5X5X5X5X5X5X5X5X5X",
"5X5X5X5X5X5X5X5X5X5X5X5X5X5X5X5X<X5X5X1X5X5X;Xv.c c c c c c n V B j C k x.:X5X5X5X5X5X5X5X5X5X5X5X5X5X5X5X5X5X5X5X5X5X5X",
"5X5X5X5X5X5X5X5X5X5X5X5X5X5X5X5X5X5X5X4X5X5X=Xm.c c l c n l c c c c l c z.<X5X5X5X5X5X5X5X5X5X5X5X5X5X5X5X5X5X5X5X5X5X5X",
"5X5X5X5X5X5X5X5X5X5X5X5X5X5X5X5X5X5X5X3X5X5X>X@.c c l l l c c c l c l c m.4X5X5X5X5X5X5X5X5X5X5X5X5X5X5X5X5X5X5X5X5X5X5X",
"5X5X5X5X5X5X5X5X5X5X5X5X5X5X5X5X5X5X5X4X5X5X=X+.c l l l l l c c l l l l l.<X5X5X5X5X5X5X5X5X5X5X5X5X5X5X5X5X5X5X5X5X5X5X",
"5X5X5X5X5X5X5X5X5X5X5X5X5X5X5X5X5X5X4X5X5X5X=X] B c l l l c c c l c l c m.5X1X5X5X5X5X5X5X5X5X5X5X5X5X5X5X5X5X5X5X5X5X5X",
"5X5X5X5X5X5X5X5X5X5X5X5X5X5X5X5X5X5X4X5X5X5X*XI l n c l l B c l l c l l z.<X5X5X5X5X5X5X5X5X5X5X5X5X5X5X5X5X5X5X5X5X5X5X",
"5X5X5X5X5X5X5X5X5X5X5X5X5X5X5X5X5X5X5X4X5X5X=XJ j l n c l c B l z c l c m.<X5X5X5X5X5X5X5X5X5X5X5X5X5X5X5X5X5X5X5X5X5X5X",
"5X5X5X5X5X5X5X5X5X5X5X5X5X5X5X5X5X5X5X4X5X5X=XJ f j l l l l B l c c l c z.1X5X5X5X5X5X5X5X5X5X5X5X5X5X5X5X5X5X5X5X5X5X5X",
"5X5X5X5X5X5X5X5X5X5X5X5X5X5X5X5X5X5X4X5X4X5X*XK w g n c c c B l l c l c m.4X5X5X5X5X5X5X5X5X5X5X5X5X5X5X5X5X5X5X5X5X5X5X",
"5X5X5X5X5X5X5X5X5X5X5X5X5X5X5X5X5X5X5X<X5X5X=X( u p g l c l c z l c z x v.1X5X5X5X5X5X5X5X5X5X5X5X5X5X5X5X5X5X5X5X5X5X5X",
"5X5X5X5X5X5X5X5X5X5X5X5X5X5X5X5X5X5X5X5X5X5X=XK e e g j B B c l l c l l M.1X1X4X5X5X5X5X5X5X5X5X5X5X5X5X5X5X5X5X5X5X5X5X",
"5X5X5X5X5X5X5X5X5X5X5X5X5X5X5X5X5X5X5X5X5X5X=XK q e u f j B B l l c j l x.1X1X5X5X5X5X5X5X5X5X5X5X5X5X5X5X5X5X5X5X5X5X5X",
"5X5X5X5X5X5X5X5X5X5X5X5X5X5X5X5X5X5X5X5X5X5X=X( e e e u f g l l v c n B z.2X5X5X5X5X5X5X5X5X5X5X5X5X5X5X5X5X5X5X5X5X5X5X",
"5X5X5X5X5X5X5X5X5X5X5X5X5X5X5X5X5X5X5X<X5X5X=XK e e e e e u g j l c j V z.5X4X5X5X5X5X5X5X5X5X5X5X5X5X5X5X5X5X5X5X5X5X5X",
"5X5X5X5X5X5X5X5X5X5X5X5X5X5X5X5X5X1X5X5X5X5X=XK e e e e e e u i f f a l ..4X5X5X5X5X5X5X5X5X5X5X5X5X5X5X5X5X5X5X5X5X5X5X",
"5X5X5X5X5X5X5X5X5X5X5X5X5X5X5X5X5X1X5X<X5X5X=X( e e t t t e r e 0 e 8 w P -X4X5X5X5X5X5X5X5X5X5X5X5X5X5X5X5X5X5X5X5X5X5X",
"5X5X5X5X5X5X5X5X5X5X5X5X5X5X5X5X5X5X5X5X5X5X=X( i e e e e e e e e r 7 w P -X5X5X5X5X5X5X5X5X5X5X5X5X5X5X5X5X5X5X5X5X5X5X",
"5X5X5X5X5X5X5X5X5X5X5X5X5X5X5X5X5X5X5X5X5X5X=X( e u r r r e e e e r 8 8 K =X5X5X5X5X5X5X5X5X5X5X5X5X5X5X5X5X5X5X5X5X5X5X",
"5X5X5X5X5X5X5X5X5X5X5X5X5X5X5X5X5X5X5X5X5X5X=X( y e e r r i t t 0 5 6 e ` ;X5X5X5X5X5X5X5X5X5X5X5X5X5X5X5X5X5X5X5X5X5X5X",
"5X5X5X5X5X5X5X5X5X5X5X5X5X5X5X5X5X5X5X4X5X5X=XK q q q e q q q t p i e t ( ;X5X,X5X5X5X5X5X5X5X5X5X5X5X5X5X5X5X5X5X5X5X5X",
"5X5X5X5X5X5X5X5X5X5X5X5X5X5X5X5X5X5X5X5X5X5X=XK p t t t e t e e 0 u e e K =X5X5X5X5X5X5X5X5X5X5X5X5X5X5X5X5X5X5X5X5X5X5X",
"5X5X5X5X5X5X5X5X5X5X5X5X5X5X5X5X5X5X5X5X5X5X=X( r r r r r r r r q e t t Y =X5X5X5X5X5X5X5X5X5X5X5X5X5X5X5X5X5X5X5X5X5X5X",
"5X5X5X5X5X5X5X5X5X5X5X5X5X5X5X5X5X5X5X4X5X5X=X( p e e u u t p w p e 8 7 T -X5X4X5X5X5X5X5X5X5X5X5X5X5X5X5X5X5X5X5X5X5X5X",
"5X5X5X5X5X5X5X5X5X5X5X5X5X5X5X5X5X5X5X5X5X5X=X( i e 6 6 6 q 0 6 7 4 8 y ' :X5X5X5X5X5X5X5X5X5X5X5X5X5X5X5X5X5X5X5X5X5X5X",
"5X5X5X5X5X5X5X5X5X5X5X5X5X5X5X5X5X5X5X5X5X5X=X( Y L m d m m s m m M M M | :X5X5X5X5X5X5X5X5X5X5X5X5X5X5X5X5X5X5X5X5X5X5X",
"5X5X5X5X5X5X5X5X5X5X5X5X5X5X5X5X5X5X5X5X5X5X_./ d.h.b.F.S.F.D.D.M.I.#.{ d._.,XOX5X5X5X5X5X5X5X5X5X5X5X5X5X5X5X5X5X5X5X5X",
"5X5X5X5X5X5X5X5X5X5X5X5X5X5X5X5X5X5X5X>XW.!.(.R.G.Z.S.S.S.M.M.S.f.k.k.L./.).{.{.5X5X5X5X5X5X5X5X5X5X5X5X5X5X5X5X5X5X5X5X",
"5X5X5X5X5X5X5X5X5X5X5X5X5X5X5X5X5X5X5X5XoXoX}.$X$X|.|.).).).).).'.(.).}. X X:X4X5X5X5X5X5X5X5X5X5X5X5X5X5X5X5X5X5X5X5X5X",
"5X5X5X5X5X5X5X5X5X5X5X5X5X5X5X5X5X5X5X5X5X1X,X,X>X,X1X<X1X<X>X<X3X,X1X5X1X5X5X5X5X5X5X5X5X5X5X5X5X5X5X5X5X5X5X5X5X5X5X5X"
};
