/* XPM */
static char *cave1672850816[] = {
/* columns rows colors chars-per-pixel */
"60 60 256 2 ",
"   c black",
".  c #010101",
"X  c #020202",
"o  c gray1",
"O  c #040404",
"+  c gray2",
"@  c #060606",
"#  c #070707",
"$  c gray3",
"%  c #090909",
"&  c gray4",
"*  c #0B0B0B",
"=  c #0C0C0C",
"-  c gray5",
";  c #0E0E0E",
":  c gray6",
">  c #101010",
",  c #111111",
"<  c gray7",
"1  c #131313",
"2  c gray8",
"3  c #151515",
"4  c #161616",
"5  c gray9",
"6  c #181818",
"7  c #191919",
"8  c gray10",
"9  c #1B1B1B",
"0  c gray11",
"q  c #1D1D1D",
"w  c #1E1E1E",
"e  c gray12",
"r  c #202020",
"t  c gray13",
"y  c #222222",
"u  c #232323",
"i  c gray14",
"p  c #252525",
"a  c gray15",
"s  c #272727",
"d  c #282828",
"f  c gray16",
"g  c #2A2A2A",
"h  c gray17",
"j  c #2C2C2C",
"k  c #2D2D2D",
"l  c gray18",
"z  c #2F2F2F",
"x  c gray19",
"c  c #313131",
"v  c #323232",
"b  c gray20",
"n  c #343434",
"m  c #353535",
"M  c gray21",
"N  c #373737",
"B  c gray22",
"V  c #393939",
"C  c #3A3A3A",
"Z  c gray23",
"A  c #3C3C3C",
"S  c gray24",
"D  c #3E3E3E",
"F  c #3F3F3F",
"G  c gray25",
"H  c #414141",
"J  c gray26",
"K  c #434343",
"L  c #444444",
"P  c gray27",
"I  c #464646",
"U  c gray28",
"Y  c #484848",
"T  c #494949",
"R  c gray29",
"E  c #4B4B4B",
"W  c #4C4C4C",
"Q  c gray30",
"!  c #4E4E4E",
"~  c gray31",
"^  c #505050",
"/  c #515151",
"(  c gray32",
")  c #535353",
"_  c gray33",
"`  c #555555",
"'  c #565656",
"]  c gray34",
"[  c #585858",
"{  c gray35",
"}  c #5A5A5A",
"|  c #5B5B5B",
" . c gray36",
".. c #5D5D5D",
"X. c gray37",
"o. c #5F5F5F",
"O. c #606060",
"+. c gray38",
"@. c #626262",
"#. c gray39",
"$. c #646464",
"%. c #656565",
"&. c gray40",
"*. c #676767",
"=. c #686868",
"-. c DimGray",
";. c #6A6A6A",
":. c gray42",
">. c #6C6C6C",
",. c #6D6D6D",
"<. c gray43",
"1. c #6F6F6F",
"2. c gray44",
"3. c #717171",
"4. c #727272",
"5. c gray45",
"6. c #747474",
"7. c gray46",
"8. c #767676",
"9. c #777777",
"0. c gray47",
"q. c #797979",
"w. c gray48",
"e. c #7B7B7B",
"r. c #7C7C7C",
"t. c gray49",
"y. c #7E7E7E",
"u. c gray50",
"i. c #808080",
"p. c #818181",
"a. c gray51",
"s. c #838383",
"d. c #848484",
"f. c gray52",
"g. c #868686",
"h. c gray53",
"j. c #888888",
"k. c #898989",
"l. c gray54",
"z. c #8B8B8B",
"x. c gray55",
"c. c #8D8D8D",
"v. c #8E8E8E",
"b. c gray56",
"n. c #909090",
"m. c gray57",
"M. c #929292",
"N. c #939393",
"B. c gray58",
"V. c #959595",
"C. c gray59",
"Z. c #979797",
"A. c #989898",
"S. c gray60",
"D. c #9A9A9A",
"F. c #9B9B9B",
"G. c gray61",
"H. c #9D9D9D",
"J. c gray62",
"K. c #9F9F9F",
"L. c #A0A0A0",
"P. c gray63",
"I. c #A2A2A2",
"U. c gray64",
"Y. c #A4A4A4",
"T. c #A5A5A5",
"R. c gray65",
"E. c #A7A7A7",
"W. c gray66",
"Q. c #A9A9A9",
"!. c #AAAAAA",
"~. c gray67",
"^. c #ACACAC",
"/. c gray68",
"(. c #AEAEAE",
"). c #AFAFAF",
"_. c gray69",
"`. c #B1B1B1",
"'. c #B2B2B2",
"]. c gray70",
"[. c #B4B4B4",
"{. c gray71",
"}. c #B6B6B6",
"|. c #B7B7B7",
" X c gray72",
".X c #B9B9B9",
"XX c gray73",
"oX c #BBBBBB",
"OX c #BCBCBC",
"+X c gray74",
"@X c gray",
"#X c gray75",
"$X c #C0C0C0",
"%X c #C1C1C1",
"&X c gray76",
"*X c #C3C3C3",
"=X c gray77",
"-X c #C5C5C5",
";X c #C6C6C6",
":X c gray78",
">X c #C8C8C8",
",X c gray79",
"<X c #CACACA",
"1X c #CBCBCB",
"2X c gray80",
"3X c #CDCDCD",
"4X c #CECECE",
"5X c gray81",
"6X c #D0D0D0",
"7X c gray82",
"8X c #D2D2D2",
"9X c LightGray",
"0X c gray83",
"qX c #D5D5D5",
"wX c gray84",
"eX c #D7D7D7",
"rX c #D8D8D8",
"tX c gray85",
"yX c #DADADA",
"uX c gray86",
"iX c gainsboro",
"pX c #DDDDDD",
"aX c gray87",
"sX c #DFDFDF",
"dX c gray88",
"fX c #E1E1E1",
"gX c #E2E2E2",
"hX c gray89",
"jX c #E4E4E4",
"kX c gray90",
"lX c #E6E6E6",
"zX c #E7E7E7",
"xX c gray91",
"cX c #E9E9E9",
"vX c #EAEAEA",
"bX c gray92",
"nX c #ECECEC",
"mX c gray93",
"MX c #EEEEEE",
"NX c #EFEFEF",
"BX c gray94",
"VX c #F1F1F1",
"CX c gray95",
"ZX c #F3F3F3",
"AX c #F4F4F4",
"SX c gray96",
"DX c #F6F6F6",
"FX c gray97",
"GX c #F8F8F8",
"HX c #F9F9F9",
"JX c gray98",
"KX c #FBFBFB",
"LX c gray99",
"PX c #FDFDFD",
"IX c #FEFEFE",
"UX c #FFFFFF00",
/* pixels */
"UXUXUXUXUXUXUXUXUXUXUXUXUXUXUXUXUXUXUXUXUXUXUXUXUXUXUXUXUXUXUXUXUXUXUXUXUXUXUXUXUXUXUXUXUXUXUXUXUXUXUXUXUXUXUXUXUXUXUXUX",
"UXUXUXUXUXUXUXUXUXUXUXUXUXUXUXUXUXUXUXUXUXUXUXUXUXUXUXUXUXUXUXUXUXUXUXUXUXUXUXUXUXUXUXUXUXUXUXUXUXUXUXUXUXUXUXUXUXUXUXUX",
"UXUXUXUXUXUXUXUXUXUXUXUXUXUXUXUXUXUXUXUXUXUXUXUXUXUXUXUXUXUXUXUXUXUXUXUXUXUXUXUXUXUXUXUXUXUXUXUXUXUXUXUXUXUXUXUXUXUXUXUX",
"UXUXUXUXUXUXUXUXUXUXUXUXUXUXUXUXUXUXUXUXUXUXUXUXUXUXUXUXUXUXUXUXUXUXUXUXUXUXUXUXUXUXUXUXUXUXUXUXUXUXUXUXUXUXUXUXUXUXUXUX",
"UXUXUXUXUXUXUXUXUXUXUXUXUXUXUXUXUXUXUXUXUXUXUXUXUXUXUXUXUXUXUXUXUXUXUXUXUXUXUXUXUXUXUXUXUXUXUXUXUXUXUXUXUXUXUXUXUXUXUXUX",
"UXUXUXUXUXUXUXUXUXUXUXUXUXUXUXUXUXUXUXUXUXUXUXUXUXUXUXUXUXUXUXUXUXUXUXUXUXUXUXUXUXUXUXUXUXUXUXUXUXUXUXUXUXUXUXUXUXUXUXUX",
"UXUXUXUXUXUXUXUXUXUXUXUXUXUXUXUXUXUXUXUXUXUXUXUXUXUXUXUXUXUXUXUXUXUXUXUXUXUXUXUXUXUXUXUXUXUXUXUXUXUXUXUXUXUXUXUXUXUXUXUX",
"UXUXUXUXUXUXUXUXUXUXUXUXUXUXUXUXUXUXUXUXUXUXUXUXUXUXUXUXUXUXUXUXUXUXUXUXUXUXUXUXUXUXUXUXUXUXUXUXUXUXUXUXUXUXUXUXUXUXUXUX",
"UXUXUXUXUXUXUXUXUXUXUXUXUXUXUXUXUXUXUXUXUXUXUXUXUXUXUXUXUXUXUXUXUXUXUXUXUXUXUXUXUXUXUXUXUXUXUXUXUXUXUXUXUXUXUXUXUXUXUXUX",
"UXUXUXUXUXUXUXUXUXUXUXUXUXUXUXUXUXUXUXUXUXUXUXUXUXUXUXUXUXUXUXUXUXUXUXUXUXUXUXUXUXUXUXUXUXUXUXUXUXUXUXUXUXUXUXUXUXUXUXUX",
"UXUXUXUXUXUXUXUXUXUXUXUXUXUXUXUXUXUXUXUXUXUXUXUXUXUXUXUXUXUXUXUXUXUXUXUXUXUXUXUXUXUXUXUXUXUXUXUXUXUXUXUXUXUXUXUXUXUXUXUX",
"UXUXUXUXUXUXUXUXUXUXUXUXUXUXUXUXUXUXUXUXUXUXUXUXUXUXUXUXUXUXUXUXUXUXUXUXUXUXUXUXUXUXUXUXUXUXUXUXUXUXUXUXUXUXUXUXUXUXUXUX",
"UXUXUXUXUXUXUXUXUXUXUXUXUXUXUXUXUXUXUXUXUXUXUXUXUXUXUXUXUXUXUXUXUXUXUXUXUXUXUXUXUXUXUXUXUXUXUXUXUXUXUXUXUXUXUXUXUXUXUXUX",
"UXUXUXUXUXUXUXUXUXUXUXUXUXUXUXUXUXUXUXUXUXUXUXUXUXUXUXUXUXUXUXUXUXUXUXUXUXUXUXUXUXUXUXUXUXUXUXUXUXUXUXUXUXUXUXUXUXUXUXUX",
"UXUXUXUXUXUXUXUXUXUXUXUXUXUXUXUXUXUXUXUXUXUXUXUXUXUXUXUXUXUXUXUXUXUXUXUXUXUXUXUXUXUXUXUXUXUXUXUXUXUXUXUXUXUXUXUXUXUXUXUX",
"UXUXUXUXUXUXUXUXUXUXUXUXUXUXUXUXUXUXUXUXUXUXUXUXUXUXUXUXUXUXUXUXUXUXUXUXUXUXUXUXUXUXUXUXUXUXUXUXUXUXUXUXUXUXUXUXUXUXUXUX",
"UXUXUXUXUXUXUXUXUXUXUXPXHXUXUXUXUXHXUXUXIXUXPXUXUX0Xl.( :.%XGXIXHXUXKXIXUXUXHXUXLXUXUXJXUXUXHXUXUXKXKXUXUXUXPXUXUXUXUXUX",
"UXUXUXUXUXUXUXUXUXLXLXUXUXUXKXHXKXUXGXUXUXJXUXIX,XD.T.).t.U =.5XUXGXUXIXKXUXUXJXIXUXIXUXUXUXUXUXUXUXUXUXPXPXUXUXUXUXUXUX",
"UXUXUXUXUXUXUXUXPXUXUXUXUXIXPXUXUXHXPXKXPXUXZX;X>XkXMXgXgXfXU.Y M.1XhXZXUXJXKXUXUXUXLXUXLXNXUXUXGXJXPXUXUXUXUXJXUXUXUXUX",
"UXUXUXUXUXUXUXUXHXUXUXGXKXUXUXUXPXPXUXUXLXfX#XpXaXBXpXlXvXhXpXY.c.U.n.J./.;XvXDXFXUXJXUXUXUXUXGXUXUXUXIXUXUXUXUXUXUXUXUX",
"UXUXUXUXUXUXUXUXPXUXPXLXUXUXPXFXLXUXDXzX].P.9XjXsXcXfXkXjXkXMXtXU.,XNXaXrXoXD.Q.%XcXVXHXUXJXLXUXPXPXUXUXUXJXPXUXUXUXUXUX",
"UXUXUXUXUXUXUXUXUXJXUXUXIXKXUXUXUXtXc.w./.yXlXkXbXdXnXgXaXvXkXbX/.u.zXhXpXjX9X}.-.).<X X<XAXUXHXUXIXLXUXUXUXPXLXUXUXUXUX",
"UXUXUXUXUXUXUXUXUXJXUXUXDXLXUXBXK.x.XXaXcXxXtXcX3X9XgXcXkXhXdXuXi.s.=XgXbXlXuX0XU.L.8XgX|.n.F.qXHXUXUXJXHXUXUXPXUXUXUXUX",
"UXUXUXUXUXUXUXUXUXHXUXPXJXUXBXY.J.7XgXsXrXwXyX,XoXMXaXxXyX;XyXE.z.|.b.dXcXdXcXdXpXT.=XfXkXxX{.d.j.:XIXUXLXUXUXUXUXUXUXUX",
"UXKXUXUXLXIXKXIXLXUXUXLXZX'.` S.iXuXtXlXiX|.*X1.`.OX@X@X:XpX6Xd. X#XH.+XcXgXzXjXNX9X#X,XsXcXlXfXT.<.C.VXUXUXUXUXIXLXPXUX",
"KXUXFXIXUXUXPXPXUXJXpX{.u.G t.qXiXpXiX6X;X .#.:X%X,X0XyXpXhX@Xn.*X%X(.Y.iXjXhXfXsXzXpX,X1XfXcXsXiX%Xa. .pXUXUXJXUXUXUXIX",
"JXUXUXUXHXHXUXIX8X}.U.A.v.q.5XeX7XiX;XS.| i E.lXiXrXfXkXhXdXE./.-X*XoXG.-XmXfXhXfXxXxXpX7X6XuXlXzX}.D._ v.UXHXUXUXUXUXUX",
"UXLXUXUXUXUXNX/.M.W./..Xz.%XeXsX8XU.Z.W   w ,XsXkXiXfXaXuXtXN.+XOX#XOX).~.nXhXlXvXaXfXmXlX8X9XkXyX,Xa.Q.S.eXLXLXJXPXUXUX",
"UXFXUXKXUXKX'.p.~.{.[.G.W.0X9X5Xn.5.D @   * Z.fXuXtXdXpXiXrXv.|.+X@X%X=XU.7XlXkXkXhXhXzXxXkXdXpXfX$Xi.5X%X~.JXUXPXUXIXIX",
"IXUXUXDXUXsXN.^.]._.R.A.rX6XuX#X$.J     X   8.yXtXiXdXiXpXrXU.+X7X1X0X6X X.XkXjXgXlXlXfXhXcXcXhXrX^.p.zXdXm.0XUXUXUXUXLX",
"IXIXUXJXUXtXG.'.'./.f.$X3XpX<XH.6.  o @     n 1XiXsXyXyXuX0X:X8XaXaXfXrXeX@XeXjXkXjXjXkXhXgXkXcXgXD.G.sXVX8Xc.6XFXUXUXIX",
"UXHXUXCX,X`.~.~.W.G.].qX8X,X2Xx.Z   X     O 1  XwXuXwXpXaX8XpXaXtXzXsXaXzX7X=XhXgXlXlXhXhXlXjXdXaXn.(.VXrXlXyXb.zXDXUXUX",
"UXUXDX-XW.^.!.(.J.A.wX8X4X3X~.] X   . O     = M.tXrXrXrXyXuXuXuXaXtXdXsXaXdXOXeXfXfXzXjXhXkXgXlXpXS.`.nXhXhXdX`.;XbXUXIX",
"JXUXyX_.Q.(.I.~.g.;X,X1X6X`.3.4 .     O     + u.rXeXwXeXtXyXyXyXuXuXdXyXaXhX-X=XfXgXhXdXgXlXjXkXkXC.+XzXfXzXgX3XwXCXUXIX",
"IXUX#XY.^.H.{.f.G.1X2X7X#Xy.S         o . .   ;.eXwXqXwXeXrXtXrXrXiXsXwXaXjX8X(.iXgXdXiXfXlXkXjXlXZ.7XjXfXcXgXlXjXDXUXIX",
"UXHX{.P.Q.T.K.e.*X;X4X:Xi._ #         .   o   @.wXqX0XqXwXeXrXeXrXuXiXqXpXsXpXW.3XfXsXuXfXjXkXhXuXY.gXkXkXkXfXxXkXZXKXPX",
"JXDX'.L.Y.).-.!.6X@XwXg.*.s   X   X       o   *.qX0X9X0XwXeXeXeXrXeXrXtXiXrXfX[.|.pXfXpXfXsXhXfX5XOXxXkXzXdXzXgXfXVXLXUX",
"IXFX`.R.Y.t.a.=XXXC.R.&.E X $     X       X X <.0X9X8X9XqXwXwXwXrX0XqXiXtXqXdX-XL.eXdXaXdXuXfXdX5X8XjXfXjXaXmXhXgXAXUXUX",
"UXJX].E.n.,.@X@XW.A.=.2.$ .               .   1.8X8X7X8X9X0XqX0XwX0X0XiX0XrXiX7Xn.8XpXiXdXyXfXaXeXaXfXsXgXdXxXjXjXFXUXUX",
"PXUX{.H.2./.&X-X#X8Xb.( $ .   X       X       >.7X6X6X6X8X9X9X9X0XqX9XuX7XpXrXqXk.4XyXtXdXyXfXpXsXfXsXdXfXgXpXhXkXFXIXKX",
"PXUXOXd.H.-X2X@X>X%Xz.@.    -       &     .   4.5X4X8X1X6X8X,XrXqX6X8X7X8XiXwXtXv.OXaXeXpXaXpXiXpXpXaXsXfXfXdXaXMXJXUXUX",
"UXUX$XR.-X[.d.7.V.:Xh.<.  +   $ +       # o   q.tX;X1X3X6XeX5X3XwX9X7XpXwX0X8XtXz.'.yXtXuX8X0XiXeXtXiXpXaXdXgXjXZXPXUXUX",
"KXGXkX&Xc.7.R.sXa.x.3.#.q       o   .       O n.+Xm.V.[.*X2X6X9X:X4X0X7X7X0XaXwXA._.eXqXiXyXpXdXiXpXpXuXyXaXlXmXJXUXUXUX",
"UXUXKX@Xw.b.5XqXrXI.| G y 4 : . O . # .     = M.y.Q.-X`.U.OX6X3XyX`.Q.7X3XwX;XaXN.E.yX0XyXtXrX5XpXiXyXtXuXhXNXGXIXUXUXIX",
"HXKXSXlX'.w.r.M.).{.T. ./.T.A.( 5       X o ; w.G.8XnXgX3X].!.}.|.>.j.r.:X0XiX3XW.E.iXqXeX9XpXpX0XqXrXaXzXCXKXUXUXUXIXPX",
"PXUXUXFX7X_.T.A.a.w.e.P.*X$X|.>X/.4.G a 5 , 4 *.A.2X7X7XbXvX8X%X(.7XfXOXp.5X5XeXY.p.|.=XtXqXrX8XpXdXxXVXJXUXUXUXIXIXPXPX",
"PXJXUXUXfX%X$XXX$XOX>X$X|.@X<X%X-X}. X|.E.M...} R..X.X<X8XoXOX6XuXnXjXjXU.2X1X9X+X7.a.2.n.|.gXvXCXDXLXUXUXUXUXIXUXIXIXUX",
"IXUXFXLXUXgX+XXXoX$X X+X#X=X{.%X*X&X>X&X*X4Xj.W ;.d.n.K.I.U.@X1XuXgXyXxX%X+XqX3X<XS._.a.n.*XKXUXPXUXUXUXPXLXUXUXUXUXUXUX",
"LXUXUXIXUXPXgX*X XoX+X+XXXXXOX#X.X#X%X$X*X+XL.i.1.k.g.8.y.s.e.0.F.{.<X<X=X;X2X4X2X).U.B.Q.hXLXUXUXUXUXUXUXUXUXUXUXUXUXUX",
"LXUXUXPXUXUXKXnX,X#X{.]..X$X%X#X*X$X@X@X+X{.R.A.S.XX:X;X7X5X+X{.A.R.}.$X,X7X8X4X5X).G.}.pXGXUXKXUXUXUXUXUXUXUXUXUXUXUXUX",
"UXUXUXPXPXUXUXUXSXkX6X=X%X#X X'.oX}.|.$X&X+X#X;X8XyX3XOX#X*X=X1X:X;X:X<X3X3X>X=X6X1X$XjXUXIXUXIXUXUXUXUXUXUXUXUXUXUXUXUX",
"UXUXUXUXPXJXLXUXUXUXJXVXxXgXaXpXaXpXhXNXZXVXFXUXUXPXxX8X>X%X#X-X<X:X-X;X-X-X2XwXdXSXDXLXUXPXUXUXUXUXUXUXUXUXUXUXUXUXUXUX",
"UXIXUXUXUXIXIXUXJXUXUXUXUXIXUXUXKXLXIXUXUXIXIXUXIXUXKXAXvXtX1X:X%X$X=X1X7XrXzXGXJXUXUXJXIXUXJXPXUXUXUXUXUXUXUXUXUXUXUXUX",
"UXIXPXUXUXUXUXUXIXPXPXIXUXIXLXKXUXUXUXUXUXUXUXLXUXUXUXUXLXGXAXZXvXzXzXNXDXHXPXUXUXLXUXKXIXUXHXUXUXUXUXUXUXUXUXUXUXUXUXUX",
"UXUXUXPXIXUXUXPXUXUXPXIXUXUXUXUXLXPXLXHXKXUXUXIXIXIXUXUXUXUXUXUXUXIXPXUXUXUXUXUXIXGXIXUXIXPXUXUXUXUXUXUXUXUXUXUXUXUXUXUX",
"PXUXUXUXUXUXUXPXLXIXUXUXPXPXIXUXUXUXUXUXUXUXUXUXUXIXUXUXIXUXUXPXUXUXUXUXPXLXPXPXUXUXHXUXUXPXUXJXUXUXUXUXUXUXUXUXUXUXUXUX",
"UXUXUXUXUXUXUXUXUXUXUXUXUXUXUXUXUXUXUXUXUXUXUXUXUXUXUXUXUXUXUXUXUXUXUXUXUXUXUXUXUXUXUXUXUXUXUXUXUXUXUXUXUXUXUXUXUXUXUXUX",
"UXUXUXUXUXUXUXUXUXUXUXUXUXUXUXUXUXUXUXUXUXUXUXUXUXUXUXUXUXUXUXUXUXUXUXUXUXUXUXUXUXUXUXUXUXUXUXUXUXUXUXUXUXUXUXUXUXUXUXUX",
"UXUXUXUXUXUXUXUXUXUXUXUXUXUXUXUXUXUXUXUXUXUXUXUXUXUXUXUXUXUXUXUXUXUXUXUXUXUXUXUXUXUXUXUXUXUXUXUXUXUXUXUXUXUXUXUXUXUXUXUX",
"UXUXUXUXUXUXUXUXUXUXUXUXUXUXUXUXUXUXUXUXUXUXUXUXUXUXUXUXUXUXUXUXUXUXUXUXUXUXUXUXUXUXUXUXUXUXUXUXUXUXUXUXUXUXUXUXUXUXUXUX"
};
