/* XPM */
static char *desert1672843656[] = {
/* columns rows colors chars-per-pixel */
"60 60 58 1 ",
"  c #BE7B1B",
". c #C37D1D",
"X c #C67E21",
"o c #C6821D",
"O c #CA851E",
"+ c #CD8C1E",
"@ c #D28D1E",
"# c #D88F1E",
"$ c #D5921E",
"% c #DB961E",
"& c #DC991F",
"* c #E19B1F",
"= c #C68320",
"- c #CC8521",
"; c #CE8C22",
": c #D08625",
"> c #D38D22",
", c #D98F23",
"< c #CE9120",
"1 c #D59222",
"2 c #DA9523",
"3 c #D79A23",
"4 c #DD9A23",
"5 c #D5952A",
"6 c #D99729",
"7 c #DC9D29",
"8 c #E09622",
"9 c #E29D24",
"0 c #E99E25",
"q c #E29D28",
"w c #DEA324",
"e c #E5A224",
"r c #EAA525",
"t c #E5AA25",
"y c #ECAB25",
"u c #E6A429",
"i c #EAA528",
"p c #E5AB2A",
"a c #EDAB29",
"s c #F1AE26",
"d c #F1AD29",
"f c #E6B227",
"g c #EDB225",
"h c #E6B02A",
"j c #EDB329",
"k c #EEB929",
"l c #F3B326",
"z c #F9B726",
"x c #F4BA26",
"c c #F9BC26",
"v c #F4B429",
"b c #F8B629",
"n c #F4BB29",
"m c #FABD29",
"M c #F6C027",
"N c #FAC226",
"B c #F6C129",
"V c #FBC32A",
/* pixels */
"9euer0ee0erer*r9eireerteeerere0eree*r*eee0eee9eree0t0re0rere",
"arrrirriiesiyrrirrearrreyyrrryyeiirtrsi0yrrrariyeyrrreyrayay",
"pgvgaasyaararyisrasagllasyyyyisiyrddsaydrsydaatvxslassytgfgr",
"5etyxzzilaavssdlalcggggxvxlslsslsislsdsssbssxclgyrgxxvlxr442",
"1%%2egxmnzllzbzccgt44449tglmzzflbbldlzzzmzcxte442992eer6%944",
"789042eynmccnmngt944408&4*4ejxmnmmzxmmmNxst44484498924998999",
"wq9eqe999erarre9890eee9099e099eyxmNBmcgye89eee009i9r999er999",
"9re0rrrrereere0eye09*erre9rereee99tie09reiyet9eeu9euireeuret",
"uyirrrirtyrryrrtyrerrireryirrriyiririryatvkgagstrrarerraerri",
"uryaayygslvlzllsysgeysisstrdrirryyyyssgvt&+;$4yxvtdadyyrydiy",
"assllsgxcffwhfgxnxzlssysddryddlsassflxt1ooo.o .@tlxlalvaadsd",
"jszncnjw<+ooo=o13tlxmcglzdvvlzlszgzcl4=O>>@>>1@oo1txzvljbdzl",
"nBcft7>>11$1$1;-Ooo1wyNcbzblvbzzxxny>>%1>12>,#>11+O1tncVzbcc",
"pe8211222316489231>+;>2ymVVmmmcmBy2>12161214%4232292>%9jvxxv",
">22%4%4444284421*424%$@+1efxMnnaw1849*4448886284*%422&222442",
"6994944999994899448998444124904484e888999996e89849929998e499",
"4eeeee909qeer89e990i90eee0099e99009e9e04e0*9999ee94e9ee9eeee",
"eytttyrtr9ee0eerrerr90eu0eri9eieei0e9ereeeeerre0irtraryyaiet",
";@124wegtlayreeyreeayaieeirryrrryiiriierierrryyydlayt4233>1;",
";>:;;+>>$&eyzvaryddiyrdsyyyysyrsrddrsdsyysaltlltw6>>>>;@:>@@",
";%,12$>11>>;&ynxvslssddadsdsssssssvssssxclzgt2$>#>,#>1211212",
"52113%424132>@3wfccnsbzszzsssdlzsbslzxxgte222114%2148%%4$1,4",
"3*9444444999w48%13ejgVmmlzmmbbzbmmBngte49242998484$94228&429",
"uee9weee4r4909ee99214thnnVVVVVVVkttw449e4t9ee94e999099&e9909",
"uttjtgygrytterteyuer9%247wwep4w74eetrirtettretiereee*rre9ire",
"pgyrtettggfgtaatryayrsrrii0etttyrjytlgglafrsyyryirirrsdrryly",
"u41,@>1$24etgxgggvrasyagallalgsygngjkffhkxngsyjsggvyvyssgllx",
"5332%2212$26&ygMnjvvzlzlvggzfvncBfe42$2637txMckvvvvvzjllnxyw",
"6444388448&%42$wvMnnmzxxbxbccnfw216*94&41429ufVNxccxxBccle2$",
"49999940999949e244rxmVVVVVngt3124994498e084924epnnBVbxje494e",
"wuq9eeee9er9e9r9e944&tttae4324ereeree9eeeueeyeeeeueareretiir",
"urrrarerrrraerryriiae9999&ereriuirrrrayirrrrrryaagggttgfgyrr",
"paayadsisiadiyyyragyasalyrtryisairssgrgryatyyaglf4416$129tgg",
"jmlaslvssssvalsllvxvxxvjlllvssddsygvgncxcxxxnxt4>>2121411$&a",
"3yxcxvzlzzzavxzzcnkkxnnBnnlvzlgvzzxzcjettegyw3+119428282%924",
"3&tjncmmnmmcmcBnfuwq2*6thmBBBbmxVBcf412%$11@#2499929684e%494",
"4e80eygxmBVnngie80990e9904agnVVBBve36e9eee0e4q099eqe9999e98e",
"9rttyituuaytp99er0eqwerr9e09eeip944eretreere9rr4909ire90erre",
"whsytyyyisriysarsstrryreyyyyurereutastyltstgrtariryyriyayrty",
"ivlgvgfcvxxgzgaaytlrasyssiisyyyrlyvrxngnkxxygyssdrsyyssyysys",
"jlte42294wetyvcxxvgzllagllyllsllvnxkh41334tkmvlvlzlvylvdsxcg",
"6$1$612,1#>,13&tgvnNnngzzvvlzxzvnnf46,111214fBcxnvlvjvvzcxky",
"684%29248949*23#$2%tfxVNcmVcxcnVBw>8249828442ufVnNBnBBBcte42",
"490994994e394999**&824eanBVVVVBt2+389949489ee2qejnnxsae*&899",
"7904re0rrttrre9ere0e08%*44wttw3%3$eeee0ere0e90t*e9e990eetr9i",
"wauaireyiritytiseeereirei9049*44eyreryrrireeairryreyyrrireit",
"rsaryyfssygxxlgyyyystysysaysgsayyayayyarsdsyyiraagyggayysysa",
"aljvgszxxt43whmngglsssllyalsggccmxxxvllllaylslgxcxgvxxgvlsss",
"avvvmxxp;o=.=o3gNvnmbbnzzznxBhewwwtgccnnccnxvcmnw;=+>4vNgvcv",
"nVVBce1;>:>>>>-;aBVxxbcmVmj7+O=-OO.oO<3wtlxckgwo  --O:>4lVcB",
"jnt91>>>,>11>>,#;6hnVVBkh3>+1>121>2>@;+o+o+@+ooo>#12>11>@9yv",
";2>112212%123,2431144496>412122242,2222222>>$#1123>22%2313>3",
"198448442999944994&434422&94&9849$9*&249499488*8944982%89*48",
"4ee99ree*e4009e09ee*teee4t9ee4eer9eereeeerrttt9euq99ee9e8ee9",
"itryyrrrryieeairrrytrttsgytryrrtryytytggttttyggyrieiryrrtrit",
"hxgvsaadsyiatdaayglllgrygggvvzvvsllggyw1$$@>34wvzllyrssgalnv",
"pranvxnxvlvllzllxmgr9122,29ettlgxvtw4@1$2,22,>14wvmxxznnBngy",
"644%9rvgMNVmmVVmvt4442986144,69&4%2%4292484q498212tgxnjyr413",
"q2842949eayzlat4982*9448q920924489&8998449894494942268924984",
"7u9eqe999u89499ee9i99ei99e44eu9e99ee990u9q99uqe999eri9999r9e"
};
