/* XPM */
static char *_22cb3a2483b4630f226204d834903e9mPPV0uV7k5srIVAv[] = {
/* columns rows colors chars-per-pixel */
"60 60 136 2 ",
"   c None",
".  c #151515",
"X  c #16181A",
"o  c #1B1B1B",
"O  c #22201E",
"+  c #1D1E20",
"@  c #1F2021",
"#  c #242423",
"$  c #292624",
"%  c #2B2926",
"&  c #2D2C2B",
"*  c #312E2B",
"=  c #34312E",
"-  c #2F2F30",
";  c #353332",
":  c #3B3634",
">  c #373837",
",  c #3C3936",
"<  c #3D3B39",
"1  c #463A26",
"2  c #463C2A",
"3  c #403937",
"4  c #413E3B",
"5  c #3E403B",
"6  c #775A1B",
"7  c #51432A",
"8  c #5B4A28",
"9  c #4C4332",
"0  c #44413E",
"q  c #4A443D",
"w  c #534935",
"e  c #594F3B",
"r  c #403F40",
"t  c #464441",
"y  c #494543",
"u  c #4C4945",
"i  c #4E4C49",
"p  c #534E45",
"a  c #514E4B",
"s  c #565045",
"d  c #5D5646",
"f  c #54524C",
"g  c #5A564E",
"h  c #5C584C",
"j  c #575451",
"k  c #595652",
"l  c #5D5A54",
"z  c #5E5B5A",
"x  c #615D4D",
"c  c #615D54",
"v  c #625F58",
"b  c #626056",
"n  c #6F6957",
"m  c #65625B",
"M  c #69665E",
"N  c #6D6A5D",
"B  c #746D5C",
"V  c #666462",
"C  c #696664",
"Z  c #6D6962",
"A  c #6D6B69",
"S  c #726E63",
"D  c #716F6D",
"F  c #757165",
"G  c #7B7565",
"H  c #7F7967",
"J  c #76736B",
"K  c #79756A",
"L  c #7A766A",
"P  c #7A776A",
"I  c #7B7669",
"U  c #7D776A",
"Y  c #787469",
"T  c #7C7969",
"R  c #7E7869",
"E  c #7C786B",
"W  c #7F7B6D",
"Q  c #7D796C",
"!  c #7A7671",
"~  c #9C7317",
"^  c #9D7418",
"/  c #AA7D18",
"(  c #807A63",
")  c #807A67",
"_  c #807969",
"`  c #837A68",
"'  c #867F6D",
"]  c #867E6E",
"[  c #837D6B",
"{  c #817F70",
"}  c #827F70",
"|  c #827E73",
" . c #868068",
".. c #878169",
"X. c #87806C",
"o. c #8C856D",
"O. c #89836F",
"+. c #90896F",
"@. c #828070",
"#. c #848071",
"$. c #858071",
"%. c #858171",
"&. c #868171",
"*. c #848172",
"=. c #868173",
"-. c #858272",
";. c #868273",
":. c #868272",
">. c #8D8571",
",. c #898374",
"<. c #888474",
"1. c #8B8675",
"2. c #8A8575",
"3. c #8C8877",
"4. c #888578",
"5. c #8F8A7A",
"6. c #918A70",
"7. c #928B70",
"8. c #928B71",
"9. c #938C71",
"0. c #948D72",
"q. c #958D72",
"w. c #958E73",
"e. c #988E77",
"r. c #908C7A",
"t. c #938F7C",
"y. c #928E7C",
"u. c #979074",
"i. c #94907D",
"p. c #97917C",
"a. c #95917E",
"s. c #96917E",
"d. c #94917D",
"f. c #9F957B",
"g. c #98937E",
"h. c #999480",
/* pixels */
"                                                                                                                        ",
"                                                                                                                        ",
"                                                                                                                        ",
"                                                                                                                        ",
"                                                                                                                        ",
"                                                                                                                        ",
"                                                                                                                        ",
"                                                                                                                        ",
"                                                                                                                        ",
"                                                                                                                        ",
"                                                                                                                        ",
"                                                                                                                        ",
"                                                                                                                        ",
"                                                      & u l b m N G R G n f                                             ",
"                                                      4 k _ 1.*.{ { @.@.*.*._ n u                                       ",
"                                                    = y q p ` E J L _ *.,.*.,.*.E M <                                   ",
"                                                  # 4 r r r n M M Z M F | f.>.K F F k                                   ",
"                                                  ; y q p 4 c M m Z M m N ' F F F F Z                                   ",
"                                                # 3 4 4 r r v M M M M M M S S J F S F p                                 ",
"                                                ; , 3 3 3 3 g l l v v m M S S S S S F M                                 ",
"                                            & $ 3 3 3 3 3 4 r 7 8 9 q a a l v l s e s a                                 ",
"                                          l b = 3 3 * 3 3 r r 8 / ~ 1 y y j l u 6 / w r                                 ",
"                                * v F l u T Z = * $ 3 % 3 a k r q q y i i z m m f x v r                                 ",
"                            # > 0 M p.p.T g B ; $ * r 3 3 a l l f j k j j v Z F F F F v                                 ",
"                            > t 4 c t.h.s.G x 3 % 3 r s * s r s s 0 f g 0 u d f S F c g &                               ",
"                          o 4 0 y c S ] y.5.c y * 3 3 s r r ` ] w.n 0 0 h +.+.n s f x B h                               ",
"                        @ # 4 y a j j c K | k v * 3 : p ` q.] f.w.6.....+.+.u.+.H G +.u.o.0                             ",
"                        > * t f j j k k M M g _ 3 3 = 4 ` e.' e.w.w.u.u.u.u.u.w.w.u.u.w.6.s                             ",
"                      & t = t j j j j j M f n 5.x 3 r a d v B B F F G G ' X.' [ H I F B m ,                             ",
"                      < u 0 < u k j j k c 3 B e.] r r k g g j j j j k g k k k k g g k f >                               ",
"                      $ & : p 4 q a a a 3 r S M S c 3 i k j j j j j j j g j j j j k j <                                 ",
"                    = : , c *.g p y * ; 3 d M M M M l r r a j j l j k k j j k k j f r                                   ",
"                  # 0 i f F p.1.h 5 > q u b M M M M V m i 5 5 < t t u i i u t t t u *                                   ",
"                  & t j j m i.p.N % = : p N M M M M M N V m m b l S M l l M S Q -.3.f                                   ",
"                  = y f j k { i.-.= * * , b N M M M M M M M M M N <.g.d.h.r.h.5.d.d.x                                   ",
"                  ; u j j j M 5.u.9 % * * q M M M M M M M M M M M X.i.i.5.h.r.h.d.d.f                                   ",
"                  > t j j j l { d.b o * = = k m v M M M M M M M M *.i.i.i.5.4.4.Q b u                                   ",
"                  < y j j j j Z d.F * O $ ; f k j j l z z z M M S r.h.5.! J D z u T -.5                                 ",
"                  5 y j j j j m r.S % , $ = i f j j j k k k k l M <.! D D C a 5 f X.d.m                                 ",
"                  , t f j j j M i.S O 0 , , < < > 5 < 5 0 u i f k V z f r < t j j v r.3.0                               ",
"                  & 0 i j j j M i.N X > 0 0 u i f f u u 0 0 < , < y i k i t j j j j Y p.M                               ",
"                    < u f j j M d.M   * = $ ; ; ; a k j k k j j z V A A i ; i j j j b W x                               ",
"                    & 0 a j f M 5.b   o O : g f t ; i j j j j j z V V z > & 0 u j j 5 = ; & ; # < u >                   ",
"                      ; 4 4 4 < q =     O u j j j * , u u u i a f j i y ; < : t u 5 - 0 t f j < a Z u                   ",
"                        $ * * * 0 i <   # t j j j > = 0 t 0 t 0 y u y > 0 i @ ; 4 % , t u j y & a v y                   ",
"                        & a c v M M M g # 0 j k l > * 4 < 4 0 0 r > * , t < o   O X > 0 y j - # t 0 $                   ",
"                        - l M M M M M E g , a i t ;     # # # & # o : ; % y 4       # t < * : # & & t >                 ",
"                        & j v M M M M I E & $ > 4 #                 o o % 4 0         ; = * y > ; 4 a a -               ",
"                          i v Z M M M _ m . O q f <               # = $ $ : &         o : , ; y > : t i >               ",
"                          ; u l v v M =.b & % , , #             @ > 4 < 4 u g           o < > = 4 $ $ *                 ",
"                            # < y y a ,.G : f 0 4 5             * 4 4 y a S F <           # ; @                         ",
"                                & * 4 m O.4 v E W M             , 4 y i y k v >                                         ",
"                                    $ , f 4 i Z J g             < y y y a z v ;                                         ",
"                                    * , , t f m m >             - y i i f v c -                                         ",
"                                  o # 4 a f l Z l ;             o * 4 a f f 4 j j                                       ",
"                                  O ; ; 4 a k k 0 l y           $ , > < < < a z M t                                     ",
"                                  O < i < < , < i m i           O , t 0 t t y y f <                                     ",
"                                  . # & & & % & & - &                                                                   ",
"                                                                                                                        ",
"                                                                                                                        "
};
