/* XPM */
static char *a009172615274b08ff13b118064ba658ruRg51ifU7IN0324[] = {
/* columns rows colors chars-per-pixel */
"60 60 227 2 ",
"   c None",
".  c #0E0916",
"X  c #0D081A",
"o  c #120C17",
"O  c #140D1E",
"+  c #180F1B",
"@  c #1D1116",
"#  c #17111F",
"$  c #1B131D",
"%  c #1F1818",
"&  c #231316",
"*  c #251A1D",
"=  c #281919",
"-  c #361C15",
";  c #2D2118",
":  c #33261B",
">  c #3B2B1C",
",  c #170F20",
"<  c #1C1321",
"1  c #1B1A21",
"2  c #19162C",
"3  c #1E1A30",
"4  c #221624",
"5  c #251B21",
"6  c #2B1D24",
"7  c #2B1B2C",
"8  c #24172B",
"9  c #2C1B33",
"0  c #261D32",
"q  c #311F37",
"w  c #311F28",
"e  c #282328",
"r  c #332424",
"t  c #3A2C23",
"y  c #37242A",
"u  c #3F292B",
"i  c #392727",
"p  c #362438",
"a  c #37302D",
"s  c #4A2613",
"d  c #592D12",
"f  c #45341D",
"g  c #4B341E",
"h  c #583E1A",
"j  c #6B360F",
"k  c #7E3F0F",
"l  c #6B3611",
"z  c #633211",
"x  c #723910",
"c  c #7D3E10",
"v  c #422B2C",
"b  c #452E29",
"n  c #423322",
"m  c #4B3B23",
"M  c #493528",
"N  c #523D23",
"B  c #422C38",
"V  c #483534",
"C  c #533532",
"Z  c #5B3C35",
"A  c #533A36",
"S  c #643F37",
"D  c #5C441B",
"F  c #705019",
"G  c #554224",
"H  c #5A4523",
"J  c #5B4728",
"K  c #594436",
"L  c #644D24",
"P  c #6B5324",
"I  c #6C572B",
"U  c #745A27",
"Y  c #6C443A",
"T  c #69463B",
"R  c #754B3D",
"E  c #675433",
"W  c #78543B",
"Q  c #7B6429",
"!  c #796229",
"~  c #7C6735",
"^  c #6F603A",
"/  c #3C2646",
"(  c #442B4C",
")  c #412B47",
"_  c #492E53",
"`  c #4E3355",
"'  c #52345C",
"]  c #533859",
"[  c #403E46",
"{  c #593965",
"}  c #613C6C",
"|  c #673E73",
" . c #4D4A51",
".. c #764D43",
"X. c #7E5544",
"o. c #70574F",
"O. c #6C4578",
"+. c #72457E",
"@. c #714B7D",
"#. c #60416E",
"$. c #66636A",
"%. c #706E77",
"&. c #695D5E",
"*. c #86420F",
"=. c #88440F",
"-. c #825D1A",
";. c #8C641B",
":. c #966B1B",
">. c #9E711B",
",. c #A8791C",
"<. c #B17F1C",
"1. c #815A3F",
"2. c #846C2C",
"3. c #8C6D2A",
"4. c #856727",
"5. c #9B7A2B",
"6. c #94752B",
"7. c #886D33",
"8. c #8A7335",
"9. c #92762E",
"0. c #A37E2C",
"q. c #A07F33",
"w. c #835341",
"e. c #885945",
"r. c #935D47",
"t. c #AA5E44",
"y. c #9A6249",
"u. c #94664C",
"i. c #9A6D52",
"p. c #8E6E47",
"a. c #A6684C",
"s. c #AB6B4E",
"d. c #A86549",
"f. c #B26E4E",
"g. c #A97555",
"h. c #B57251",
"j. c #BB7553",
"k. c #BE7955",
"l. c #B47C5A",
"z. c #BB7F5B",
"x. c #AB6F51",
"c. c #8E746C",
"v. c #C17B56",
"b. c #C37E59",
"n. c #BA851D",
"m. c #B6831D",
"M. c #A8842C",
"N. c #B58D2D",
"B. c #BD932E",
"V. c #A88833",
"C. c #B99737",
"Z. c #B29036",
"A. c #9A8031",
"S. c #C2972F",
"D. c #C69D37",
"F. c #CBA437",
"G. c #D4A531",
"H. c #D4AB33",
"J. c #DBAB32",
"K. c #DCAF3A",
"L. c #D3A93C",
"P. c #DAB532",
"I. c #DEB13C",
"U. c #D7B436",
"Y. c #E0AF33",
"T. c #E1B033",
"R. c #9A8447",
"E. c #B5914D",
"W. c #BDA242",
"Q. c #C3835D",
"!. c #C9865E",
"~. c #D5AE45",
"^. c #DEB442",
"/. c #DEBD42",
"(. c #DBB848",
"). c #C6AA53",
"_. c #D7B757",
"`. c #C9AE48",
"'. c #E0B644",
"]. c #E4BB4B",
"[. c #E3B947",
"{. c #E4BF51",
"}. c #CC8C63",
"|. c #C28860",
" X c #D08E64",
".X c #CF9167",
"XX c #D29266",
"oX c #D7976A",
"OX c #D7986A",
"+X c #D9996B",
"@X c #D8976A",
"#X c #DEC45B",
"$X c #E3C44C",
"%X c #E2C248",
"&X c #E5C353",
"*X c #E9C455",
"=X c #E6C853",
"-X c #E9CC56",
";X c #E5C459",
":X c #E9C75E",
">X c #E9C65C",
",X c #E9C75D",
"<X c #EAC95E",
"1X c #E9CE5F",
"2X c #EACF5E",
"3X c #EACD5D",
"4X c #E7CD5E",
"5X c #EBD05F",
"6X c #744C83",
"7X c #764882",
"8X c #7D558C",
"9X c #7B7982",
"0X c #855C94",
"qX c #8B639B",
"wX c #8E689E",
"eX c #827D83",
"rX c #946BA5",
"tX c #946BA5",
"yX c #9B73AC",
"uX c #9E77B0",
"iX c #9F78B1",
"pX c #A079B2",
"aX c #939199",
"sX c #A8A7B0",
"dX c #9C9AA3",
"fX c #CECDD6",
"gX c #DAD8E1",
/* pixels */
"                                      X O X O , , , , ,       O , , O O O O # O O O                                     ",
"                              , O 5 i G E ~ 7.7.7.2.U J i 4 $ 6 t G I ! 2.~ ~ I G e # #                                 ",
"                            $ m 8.E._.;X>X<X<X<X:X<X:X{.`.C.Z.D.U./.%X$X-X-X5X-X4X`.8.t #                               ",
"                          5 3.~.-X:X:X:X>X>X{.{.{.{.:X:X<X3X4X2X1X1X1X5X2X2X2X2X2X4X-XC.t O                             ",
"                        4 3.[.,X<X;X].^.K.K.J.J.J.K.K.I.'.'.[.$X$X=X$X%X%X%X/.%X=X2X2X=XV.; O                           ",
"                      O L ^.,X;X].Y.J.J.J.J.J.J.J.J.J.H.J.J.J.J.P.P.P.P.P.P.P.P.U.%X4X2X%X! #                           ",
"                      6 B.>X>X'.J.J.J.J.J.G.J.J.J.J.J.J.J.J.J.J.P.P.P.P.P.P.P.P.P.P.%X-X=XF.t O                         ",
"                    O N ^.,X^.J.J.J.J.J.J.J.J.J.J.J.J.J.J.J.J.J.P.P.P.P.P.P.P.P.P.P.P./.4X%XA.#                         ",
"                    O 3.].].J.J.J.J.J.J.J.J.J.J.J.J.J.J.J.J.J.J.P.P.P.P.P.P.P.P.P.P.P.P.%X=XH.m O                       ",
"                  , 6 B.T.K.J.J.J.J.G.J.J.J.J.J.J.J.G.J.J.J.J.J.J.P.P.P.P.P.P.P.P.P.P.P.P.U.P.A.< O                     ",
"                  O H G.J.J.J.J.J.Y.Y.Y.J.J.J.J.J.J.J.J.J.J.G.J.J.P.P.U.P.P.P.P.P.P.P.P.U.P.P.U.m O                     ",
"                  < 6.T.J.J.G.F.S.N.0.6.V.G.K.K.K.^.[.[.].].{.{.;X=X=X=X=X=X=X=X$X$X%XW.~ ! Q 8.L , O                   ",
"                  r V.M.4.I L J J E ~ i.).;X;X,X,X:X:X:X:X:X:X:X,X:X5X4X4X5X4X5X4X2X4X4X#XW.R.^ G e # #                 ",
"                , $ r b E p.E.)._.>X<X5X:X:X,X,X:X:X:X:X:X:X:X:X,X,X4X3X4X4X5X4X4X2X4X2X2X2X5X5X#X).A.G $               ",
"              $ n U E._.4X3X<X<X:X:X<X,X:X:X:X,X:X:X:X:X:X:X:X:X,X,X4X2X5X4X4X4X5X4X5X4X2X4X2X2X2X2X2X(.Q 5 ,           ",
"          O 5 Q L.*X3X<X,X,X<X<X<X:X,X:X,X:X:X:X:X:X:X:X:X:X:X:X,X>X4X2X2X5X4X2X2X4X5X4X2X2X4X4X2X2X2X2X=XA.r #         ",
"        , t 0.'.>X:X:X:X,X,X<X>X,X:X:X:X:X:X:X,X,X:X<X,X,X<X,X,X<X<X<X<X<X<X5X5X5X3X1X1X2X2X2X2X4X2X2X2X4X=XW.m O       ",
"      , G S.[.>X:X:X:X:X,X,X,X<X:X:X:X:X:X,X>X>X>X>X,X*X*X,X*X*X{.{.>X{.<X<X-X-X,X-X2X-X2X2X2X2X2X4X2X2X4X4X4XL.G ,     ",
"    < P F.[.,X,X:X:X:X<X<X>X*X*X{.[.[.[.'.K.L.F.D.D.C.Z.V.V.V.6.3.3.4.4.3.3.2.2.8.9.A.V.Z.D.F.U./.%X%X=X-X2X5X-XL.G O   ",
"  O L G.K.*X>X>X>X{.(.~.F.B.V.5.3.4.I L G m n t r * * 4 < < < , , , , , < , , , # < , $ 1 5 e t f G P Q A.Z.W.F.H.! , O ",
", < M.Y.G.D.C.q.4.L N b e * $ # 4 5 7 w y 4 O < v Z Z S S Y R R 1.1.1.w.w.w.1.1.w.w.w.w.Y v 4 7 a i < , < $ e r t 1 , , ",
"O < J L n r 4 $ , , , , 2 2 2 2 S a.a.f.r.&.9XV y r.v.v.v.v.v.v.v.v.v.v.b.b.b.Q.Q.!.b.j.o.eX$.0 K s.C O         X O ,   ",
", O O O , O , < v Y w.q 3 3 p 0 ..v.j.h.&.fXgXsX8 K  X XXXXXXXXXXXXX@Xv.v.@XOXoX@XoXOXE.dXgXfX .1 r.V o                 ",
"          , , Y h.k.h.a 2 2 ..r.y.j.b.|.&.fXgXsXe V XX@X@X@X@X@X@X@X@Xv.t.b.OX+X@X@X+Xi.dXgXgX&.# R u O                 ",
"          , 5 a.j.j.j...0 2 B h.j.k..X.XV $.aX%. . ..XoXoXoXoXoXOXOXXXf.t.d.!.+XOXOX+Xu.[ aX%.p e T 6 ,                 ",
"          O 4 y.j.j.j.f...0 0 r.j.|.oXoXK # 1 %.sXo.oXOXoXoXoXoXOX+XOXj.d.f.!.OXOXOX+Xg.1 1 e aX9XT < ,                 ",
"          # , Z j.j.j.j.h.r.A ..j.}.+X+Xi.e 1 0 K g.OXOXoXoXoXoX+X+X+XXX XXX@XoXOXOXoX.X .; 1 $.c.S ,                   ",
"            # < Y s.h.j.s.h.j.h.j.b.+X+X+XR.o.e.l.oXOXOXoXoXOXOX|.x.XX+X+X!.Q.oXoXOXoXOX.Xp.X.u.a.u O                   ",
"              O < y C C v r.j.j.j.k.XXoXoX+X+X+XOXoXOXoXOXoXoXOX|.m M W E n ..oXoXOXoXoXoX@X@X!.w.< ,                   ",
"                    O O v s.j.j.j.j.b.oXoXoXoXoXoXoXoXoXoXoXoXOXOX}.i.1.w.g.XXoXoXoXoXoXoXoX}.a.y O                     ",
"                      O < C a.j.j.j.j.b.XXoXoXoXOXoXoXoXoXoXoXoXOX+X+X+X+X+XoXoXoXoXOXOXoX}.s.v O $                     ",
"                        , , q w.h.j.j.k.k.}.XXoXoXOXOXOXoXoXOXoXOXOX+X+X+X+XoXoXoXoXXX}.b.y.v , ,                       ",
"                            O < C e.f.j.j.j.j.b.!.}. X X XXX X X X X}.}.}.!.b.b.b.b.v.s.Y 6 O +                         ",
"                              , O < v Y y.f.j.v.j.j.j.j.k.k.k.k.k.j.j.j.v.j.v.j.h.d.R y # O                             ",
"                                    O O 4 u C Y R r.r.d.d.a.s.a.a.a.a.d.r.r.W Y v 4 , O                                 ",
"                                        o o $ 6 6 5 4 5 6 6 w y y r 6 7 7 4 * # O O                                     ",
"                                      . o - ;.,.,.-.7 } #.6 F ;.;.;.h / 7X_ h ; % %                                     ",
"                                    # L P - ,.n.m.,.y 0XwXp ,.n.n.N.-.( rX} h D > 6.: o                                 ",
"                                  % 4.J.U : <.<.m.,.y 8XyX) -.n.n.n.;.p tX6Xg ;.= B.N.> .                               ",
"                                @ 4.J.J.D f N.<.m.<.t 7XpX' D n.n.n.>.y qX8Xt >.= 5.Y.N.: X                             ",
"                              o L J.J.G.> D <.<.,.,.> O.pXO.f ;.;.;.F 6 0XqXy -.; ! J.J.5.&                             ",
"                              : S.J.J.B.= > N C b v q ' 0X+.9 ( ` ] ] / { 6Xq B $ F P.J.J.P o                           ",
"                            o 4.Y.J.J.6.$ { } | 6X8X@.` _ _ { qXyXiXuXqX{ ` O.8Xq D J.J.G.5.% X                         ",
"                            = B.J.T.Y.D 9 +.+.7XyXpXyXrXwXwXyXpXiXiXiXiXuXyXpX0X0 : 3.P f > h L : .                     ",
"                        o % = H U 4.5.; 8 O.+.7X0XpXpXpXpXpXpXpXiXpXpXpXuXuXtX} # @ g P 5.S.H.T.3.o                     ",
"                      o L M.0.3.U D f & O ( | +.7X0XtXtXrXyXyXrXrXrXwXqX0X@._ 4 . P H.J.J.G.N.6.N o                     ",
"                      % M.J.J.J.T.J.G.4.o o 4 q / ( _ ' ] ' ' ' ' ` ( p 9 1 o   . f M.4.H n t b A *                     ",
"                      o : g G P Q 3.0.N X     . 7 / q O . o # o . o p _ p o       o * C R u.x.z.Q.Z o                   ",
"                    o u e.u.X.T T u @ o       o _ 7X{ +           o ' 7X{ O         y l.Q.Q.Q.E.b.e.o                   ",
"                    # u.Q.Q.Q.Q.E.g.6         o ' +.( o           . / 7X{ ,         o w.Q.|.Q.l.i...o                   ",
"                    @ i.Q.Q.Q.b.b.l.7         , } +.q .           . 9 O.| <           * T T A u 4 o                     ",
"                    o Z g.g.l.l.z.i.4         < } | 8               < } | 7             o .                             ",
"                      o * w r i u r o       o $ 7 7 + o             + 4 q + O o                                         ",
"                                          o = z j j s o             & z l l s o                                         ",
"                                            & k =.=.d o             & *.=.=.d o                                         ",
"                                            @ x *.=.d o             & c *.*.s o                                         ",
"                                            o z *.*.d o             = k *.*.- .                                         ",
"                                      o & = - x *.=.d o             & c =.*.s = & o                                     ",
"                                      o s l x x x x s X             & l x x x x l = .                                   ",
"                                      o @ & @ & @ @ o .             o @ @ & & & & @                                     "
};
