/* XPM */
static char *_274f2d09f4a4805eb06e069f2cc7f3bYuderSpupp6kdpdy[] = {
/* columns rows colors chars-per-pixel */
"60 60 136 2 ",
"   c None",
".  c #151515",
"X  c #16181A",
"o  c #1B1B1B",
"O  c #22201E",
"+  c #1D1E20",
"@  c #1F2021",
"#  c #242423",
"$  c #292624",
"%  c #2B2926",
"&  c #2D2C2B",
"*  c #312E2B",
"=  c #34312E",
"-  c #2F2F30",
";  c #353332",
":  c #3B3634",
">  c #373837",
",  c #3C3936",
"<  c #3D3B39",
"1  c #463A26",
"2  c #463C2A",
"3  c #403937",
"4  c #413E3B",
"5  c #3E403B",
"6  c #775A1B",
"7  c #51432A",
"8  c #5B4A28",
"9  c #4C4332",
"0  c #44413E",
"q  c #4A443D",
"w  c #534935",
"e  c #594F3B",
"r  c #403F40",
"t  c #464441",
"y  c #494543",
"u  c #4C4945",
"i  c #4E4C49",
"p  c #534E45",
"a  c #514E4B",
"s  c #565045",
"d  c #5D5646",
"f  c #54524C",
"g  c #5A564E",
"h  c #5C584C",
"j  c #575451",
"k  c #595652",
"l  c #5D5A54",
"z  c #5E5B5A",
"x  c #615D4D",
"c  c #615D54",
"v  c #625F58",
"b  c #626056",
"n  c #6F6957",
"m  c #65625B",
"M  c #69665E",
"N  c #6D6A5D",
"B  c #746D5C",
"V  c #666462",
"C  c #696664",
"Z  c #6D6962",
"A  c #6D6B69",
"S  c #726E63",
"D  c #716F6D",
"F  c #757165",
"G  c #7B7565",
"H  c #7F7967",
"J  c #76736B",
"K  c #79756A",
"L  c #7A766A",
"P  c #7A776A",
"I  c #7B7669",
"U  c #7D776A",
"Y  c #787469",
"T  c #7C7969",
"R  c #7E7869",
"E  c #7C786B",
"W  c #7F7B6D",
"Q  c #7D796C",
"!  c #7A7671",
"~  c #9C7317",
"^  c #9D7418",
"/  c #AA7D18",
"(  c #807A63",
")  c #807A67",
"_  c #807969",
"`  c #837A68",
"'  c #867F6D",
"]  c #867E6E",
"[  c #837D6B",
"{  c #817F70",
"}  c #827F70",
"|  c #827E73",
" . c #868068",
".. c #878169",
"X. c #87806C",
"o. c #8C856D",
"O. c #89836F",
"+. c #90896F",
"@. c #828070",
"#. c #848071",
"$. c #858071",
"%. c #858171",
"&. c #868171",
"*. c #848172",
"=. c #868173",
"-. c #858272",
";. c #868273",
":. c #868272",
">. c #8D8571",
",. c #898374",
"<. c #888474",
"1. c #8B8675",
"2. c #8A8575",
"3. c #8C8877",
"4. c #888578",
"5. c #8F8A7A",
"6. c #918A70",
"7. c #928B70",
"8. c #928B71",
"9. c #938C71",
"0. c #948D72",
"q. c #958D72",
"w. c #958E73",
"e. c #988E77",
"r. c #908C7A",
"t. c #938F7C",
"y. c #928E7C",
"u. c #979074",
"i. c #94907D",
"p. c #97917C",
"a. c #95917E",
"s. c #96917E",
"d. c #94917D",
"f. c #9F957B",
"g. c #98937E",
"h. c #999480",
/* pixels */
"                                                                                                                        ",
"                                                                                                                        ",
"                                                                                                                        ",
"                                                                                                                        ",
"                                                                                                                        ",
"                                                                                                                        ",
"                                                                                                                        ",
"                                                                                                                        ",
"                                                                                                                        ",
"                                                                                                                        ",
"                                                                                                                        ",
"                                                                                                                        ",
"                                                                                                                        ",
"                                            s N I I G N m b l u &                                                       ",
"                                      u m _ -.-.X.W | | | 1.R h 3                                                       ",
"                                  < m R -.,.-.;.-.W K F _ ` p t t ;                                                     ",
"                                  g F F Y >.f.] F Z Z m M c r r 4 4 %                                                   ",
"                                  N J F F F ] N M M m Z M v r y y y 3                                                   ",
"                                p S F F F F S M M Z M m Z v s 4 3 3 3 O                                                 ",
"                                M Y A S D S S m v v v c k d 4 3 3 3 3 *                                                 ",
"                                a p e p l v z a s r 8 8 2 s r 3 3 : 3 : $ &                                             ",
"                                4 w ^ 6 y v j y r 2 ^ / 2 r r 3 : ; : 3 = b l                                           ",
"                                y m d d v m l a f r 4 4 r f s 3 * = % : = S P u c F b *                                 ",
"                                v Y F F D S v j l v k f l c r 3 > p = $ = Z g R t.p.M q > @                             ",
"                              & g v F S s g p q k a 4 d s 4 p * a y 3 % 3 x U t.i.p.l 0 t >                             ",
"                              h B c s s n 6.o.x r 3 n q.q.n 4 y a 3 : = y l r.t.<.F l y 0 0 o                           ",
"                            0 o.u.+.G ( 6.0.q.+.] ` q.q.q.q.q.` u : 3 * v h | U l g j f t 0 # @                         ",
"                            p 6.w.w.w.u.w.w.q.q.f.e.q.q.8.q.+.` q : : 3 _ g M M j j j j f 0 * ;                         ",
"                            , M B F I ( ` ] ] ` _ _ G S S M v c a 4 * c 3.B s M j j j j l t = t &                       ",
"                              > f k j j j l l j f j g j f j j j j u 4 >.w.B , v j j j k u < < i <                       ",
"                                4 j k j j j j j k j j j j j j j i < c S Z B 0 < i f a 0 , p : & %                       ",
"                                  4 f j k j k j k k k k j j f r 4 l M M M V h > ; & y s g O.c , : ;                     ",
"                                  & u q y t u u i u q 5 5 5 0 i m M M M M M m u t , 5 h <.g.F f i 0 #                   ",
"                                  f 3.<.W S M x l M F l l m M M M M V M M M M u : = $ N d.d.m j k t &                   ",
"                                  b i.i.d.d.d.d.d.d.3.N M M M M M M M M M N b : * * = O.d.X.k j g t =                   ",
"                                  s a.a.t.d.t.t.t.d.@.M M V M M M M M M M M q * * % 9 d.5.M j j k y ;                   ",
"                                  u v P *.4.5.h.d.t.*.M M M M M M M M m v k = = % O b d.{ k j j j y >                   ",
"                                5 *.T y z A ! ! r.g.5.S M m v z l l k j j f : & O & F d.S j j j j y ,                   ",
"                                M h.*.f r a C A D ! 4.N l j j k j j j j f i ; # 5 % N d.m j j j j y 4                   ",
"                              0 ;.4.m j j y , r f z V k f i u t 5 5 < , , < , < 5 O S r.M j j j f t <                   ",
"                              N i.F j j j k 4 i z i u < > < 0 t y i a f a u q 4 > X N t.M j j j i 0 &                   ",
"                              l R v j j j i > i A C C k j j j k k k a ; ; = $ = &   M d.N f j f t <                     ",
"                  > u > # ; & ; : 4 k f u 0 % , z V C l j j j j j a = t j j > O o   m r.m g j i 0 &                     ",
"                  u Z f , k a t 0 = 4 y t : < > t i k f a i u u y , = j j j y #     = q < 5 0 0 ;                       ",
"                  y v a & u j y 0 < $ 4 ; @ a t > y u y t 0 t t t = : k j j t #   < i 4 = & * $                         ",
"                  % 4 t # = j y t > X #   o : r > & , r 0 t 4 < 0 & ; l j g 0 # g M Z M v l a &                         ",
"                > t * * # ; - < 0 $       4 p % * > o # % # # #     = y u f , f Q N M M M V l *                         ",
"              - a a 4 * , u & = ;         4 4 % o +                 # 5 : % & P J M M M M m j &                         ",
"              > i t ; > y ; < : X         & : $ $ ; #               > f t O X n [ V M Z M v i                           ",
"                - % % < * , < +           g u 4 3 4 > +             # > , $ % c -.M v v c u ;                           ",
"                        # ; +           , D B f u r 4 *             0 0 0 s : G ,.f y t < #                             ",
"                                        > m k y u y 4 >             M Q Q v 5 *.m 4 * %                                 ",
"                                        ; m l i y u y <             k S Z a 4 f , $                                     ",
"                                        = l v j u u u -             > m m f y > , *                                     ",
"                                      j k 4 a j a 0 * X             ; l V l f a 4 O X                                   ",
"                                    0 M z i < , , , : $           y l 4 l l a 4 ; = #                                   ",
"                                    < f u t t t t t , O           i m u < > > 4 i < @                                   ",
"                                                                  & ; & - % & & & # .                                   ",
"                                                                                                                        ",
"                                                                                                                        "
};
