/* XPM */
static char *_9559019825a4d9b88931ddba2ebe530nrYwPkGv825iBb2C[] = {
/* columns rows colors chars-per-pixel */
"60 60 110 2 ",
"   c #000000",
".  c #0A0602",
"X  c #0C0905",
"o  c #0B0A0A",
"O  c #150C04",
"+  c #190E05",
"@  c #130F0B",
"#  c #1D1006",
"$  c #14110E",
"%  c #1D140C",
"&  c #141311",
"*  c #1B1612",
"=  c #1B1816",
"-  c #1C1C1B",
";  c #251507",
":  c #2A1607",
">  c #2F1807",
",  c #24160A",
"<  c #291708",
"1  c #25190D",
"2  c #2C1A0B",
"3  c #301807",
"4  c #321B0A",
"5  c #391F0B",
"6  c #221B15",
"7  c #2D1E11",
"8  c #221F1B",
"9  c #35210E",
"0  c #3D230D",
"q  c #23211F",
"w  c #2D251C",
"e  c #342416",
"r  c #3A2412",
"t  c #3F2812",
"y  c #342619",
"u  c #3C2C1D",
"i  c #242424",
"p  c #2A2622",
"a  c #2E2924",
"s  c #2C2C2C",
"d  c #342C24",
"f  c #3B2E23",
"g  c #3C3126",
"h  c #37302A",
"j  c #3B342D",
"k  c #2F3030",
"l  c #323233",
"z  c #383735",
"x  c #3D3A35",
"c  c #3C3C3B",
"v  c #44240D",
"b  c #49260E",
"n  c #4D290F",
"m  c #432710",
"M  c #442A16",
"N  c #4D2B12",
"B  c #442D19",
"V  c #4A2E18",
"C  c #532D11",
"Z  c #592F13",
"A  c #4B331E",
"S  c #553013",
"D  c #5B3314",
"F  c #56341C",
"G  c #5E391A",
"H  c #633515",
"J  c #663817",
"K  c #693917",
"L  c #643E1E",
"P  c #6C3C19",
"I  c #703E1A",
"U  c #443424",
"Y  c #4A3523",
"T  c #4B3827",
"R  c #423528",
"E  c #42382E",
"W  c #4F3C2A",
"Q  c #5F3D21",
"!  c #573E28",
"~  c #423A32",
"^  c #413F3D",
"/  c #5B452D",
"(  c #4B4033",
")  c #4B433C",
"_  c #534233",
"`  c #584535",
"'  c #5A4836",
"]  c #524439",
"[  c #5A4A3D",
"{  c #644222",
"}  c #6E4626",
"|  c #6B492B",
" . c #444444",
".. c #4A4642",
"X. c #4B4B4B",
"o. c #564D45",
"O. c #504F4F",
"+. c #5C5046",
"@. c #4F5050",
"#. c #535353",
"$. c #605246",
"%. c #9E9D9C",
"&. c #9D9FA1",
"*. c #9EA0A4",
"=. c #A1A4A6",
"-. c #A4A7AA",
";. c #A7AAAD",
":. c #A9ACAF",
">. c #ABAEB1",
",. c #AEB1B4",
/* pixels */
"#.* % * * * 6 = * * $ $ $ o * s k l k l l l l l l l l l l z l l l l l l l l l l l l l l s & & & $ & $ & = - * 1 * % * * ",
"..O + ; ; # 6 $ X O . .               .                     o                                     . O X & 6 ; # # # + O ",
"o.: 3 4 5 e p $ # # O .                                                                   .     . O # % $ p e 4 3 4 : # ",
"+.5 v b N Y i % 2 ; O . .     .                                                           .     . O ; 4 * i T n b v 0 ; ",
"+.v b N A h = 9 0 < # . .                                                                       . + < 0 9 * h A n b v > ",
"$.v b N R q 1 b 0 < O .                                                                         . + < 0 n 1 q R N m v > ",
"$.v n A a = m D 0 2 O .                                                                       o . # < v S m * a A n v 3 ",
"$.v V g - 2 D D 0 2 + . .                                                                       . + < 0 D D 9 - g N v 2 ",
"$.v Y q * m K D 0 2 # X     .                                                                 . X + 2 0 S J m % q A t 2 ",
"Y V d * 4 S K D 0 2 % X                                                                 .       o % 2 t D K S 9 = g V > ",
"B R 8 * m D P D 0 2 * X                                                                         o % 2 v D K D v * 8 g 0 ",
"Y w $ 9 S D P D t e * .     . .                                                           .     . * e 0 D P H C 9 $ w g ",
"R = % n S H P D t w o .                                                                           $ w t D P J S N % = l ",
"( - 9 S D J P D u q o .     .                                                             .     . o q u D I J D S 9 6 c ",
"[ w v S D J I G u $ X .     .                                                                   . X $ d G P J D S m e X.",
"_ t n D D K I ! q o O .                                                                   .     . X o q / P J D D n t ) ",
"T 0 C D G P } E & O O .       .                                                           .     X O + & E } P H S C r j ",
"B 0 n D D I ' i $ ; O .                                                                         . O % $ p ' I D D n 0 w ",
"N v C D H | ( * < , + .                                                                         . O , < = ~ | J D C v 5 ",
"n v S D L ' q % 4 2 O O                                                                   .     . + 2 4 % i ' L D C b 3 ",
"b m S G / j = 9 0 < O .                                                                         . + : 0 r * j ' H S n 3 ",
"b b D { ( 8 7 N 0 < O . .                                                                       . O : 0 N 7 - W { S v 3 ",
"m b D / a * N S 0 : O .                                                                         . O ; 0 D N * a / H n 3 ",
"e n Q E = 9 J D 0 : O .                                                                         . O ; 0 S J 9 = E Q n 3 ",
"u N ( q % n P D 0 ; O X                                                                         . + ; 0 D P N 1 i W N 3 ",
"u A d * 9 H P S 0 , + o                                                                         X $ ; 0 S J D 9 = d A 4 ",
"u g - 1 n H J S 5 , & X                                                                         X $ < 0 C K H N 1 = R u ",
"h q % t S D J S 5 7 & .                                                                         . & 1 0 S H H S r % q g ",
"j = 1 S D D H C r 6 o                                                                             o q 0 C H D S C 1 = z ",
"] 6 0 S S D H n y = X                                                                           . . = y N H Z Z Z r 6  .",
"[ y n S C C H N w @ X X                                                                         . . o p V H Z C C n y o.",
"` M C S C C D A 6 X X X                                                                         . O . - A H C C Z C M ..",
"T r C C C C F d & O O X                                                                         . O O $ d F C C S N r h ",
"M 0 N C C N U q + + O .                                                                         . O # + q Y N C S V 0 2 ",
"v v n Z C Y d $ 1 , + .                                                                         . O < < & d A S C n v > ",
"v v n C S R - % 5 < O .                                                                         . O 2 4 % - g S C n v 3 ",
"m b n C Y a * 5 0 : O . .                                                                       . O : 0 5 * p Y C C v 3 ",
"v v n V d = 7 C 0 : O .                                                                       . . O ; 0 N 7 * d V n v 3 ",
"m v n B q * C S 0 : O .                                                                         . O 2 0 S C % q u N v 3 ",
"v v V a * 4 J D 0 ; O X                                                                         . O ; 0 D J 5 * a V v 3 ",
"r m f 8 , n P D 0 ; O .                                                                         . O ; 0 S P C % - U m 3 ",
"y B p & 5 H P S 0 ; O                                                                             O ; 0 S K H 5 & p B 4 ",
"R f = , N H J C 5 ; .                                                                             X ; 9 S K H n , = d 5 ",
"x - @ m S D J C 5 #                                                                                 + 0 C J D D r @ 8 h ",
"l = , C S D H C 4 X                                                                                 X 4 n H D D C , * z ",
"x 6 0 S Z S H n ;                                                                                     ; n H Z C Z 0 6  .",
") r n S C Z H v X                                                                                     O v H Z C Z n y O.",
"_ B n S C C C ,                                                                                         , Z C C Z n V ^ ",
"Y 0 C C C C v .                                                                                         X m C C Z n m d ",
"r 0 n S C v #                                                                                             + m C Z n r , ",
"0 v n C C 2 .                   o   o   o o o o o o o   o                                   o   o   o o X o 4 C C n v 3 ",
"v v n C v O             o & & - - - - - - - - - i - - - q -                       o o & - - - - - - - - - - * m Z n v 3 ",
"v v n N ;         o & - - - i i i i i i i i i i i s i s i i o               . o & - - - i i i i i i i i i s - 7 n n v 3 ",
"v v b 4 .   o & & - i i s s s k k s k s s k l l l l l k l s             o & & q i i s s s s l s k k s l l l k p r n v 3 ",
"0 v v # o & = - - s s k l l l c c c c c c  .c c  .c c c c l o       o & - i i i s l l l c c l c c c c c ^ ^ ^ z y m m 3 ",
"0 v e & & - i i s k l z c  . . . . . . . . . . . . . . . .l o   o & - - i i s l l c  .c  . . . . . . . . . . . .l r v 3 ",
"0 0 6 - q i i k l c c  . .X. .X. .X.X.X.@.@.X.X.X.X.X.X.X.c o & - - i s s k l c c  . . .X.X.X.X.X.X.X.X.@.O.X.X. .d 5 3 ",
"0 7 q i s s l z c  . . .X.X.X.@.@.@.@.@.#.#.@.@.@.@.@.@.@. .- - i i s k l c c  . .X.X.X.@.#.@.@.@.@.@.@.#.#.@.@.@.^ y 3 ",
"f a k l z c  . .X.X.X.@.#.#.#.#.#.#.#.#.#.#.#.#.#.#.#.#.#.X.s s k z l c  . .X.@.@.@.@.#.#.#.#.#.#.#.#.#.#.#.#.#.#.O.j e ",
"=.%.=.=.=.=.;.:.:.>.>.>.,.,.,.>.,.,.,.,.,.,.,.,.,.,.,.,.,.>.&.=.*.*.-.-.;.:.:.>.:.,.,.,.,.,.,.,.,.,.,.,.,.,.,.,.,.>.=.%."
};
