/* XPM */
static char *cb6949b9fe994ad6c697c359095058cd2xkZG4uHHWScUYxa[] = {
/* columns rows colors chars-per-pixel */
"60 60 160 2 ",
"   c #070606",
".  c #080707",
"X  c #080807",
"o  c #0B0A09",
"O  c #170D04",
"+  c #1C0E04",
"@  c #1E1006",
"#  c #151514",
"$  c #181817",
"%  c #1D1C1B",
"&  c #241307",
"*  c #2C1406",
"=  c #2D1807",
"-  c #251509",
";  c #291609",
":  c #2D190A",
">  c #321507",
",  c #341C0A",
"<  c #3A1E0A",
"1  c #241913",
"2  c #2C1E15",
"3  c #361E12",
"4  c #36200D",
"5  c #3D210C",
"6  c #2E2016",
"7  c #22201F",
"8  c #2B231E",
"9  c #342216",
"0  c #392516",
"q  c #3D2816",
"w  c #3A2618",
"e  c #3F2818",
"r  c #252422",
"t  c #292725",
"y  c #2E2925",
"u  c #2D2B2A",
"i  c #352C25",
"p  c #36322E",
"a  c #3B342D",
"s  c #353433",
"d  c #3A3633",
"f  c #3F3A36",
"g  c #44240D",
"h  c #49260E",
"j  c #4D280F",
"k  c #522A0F",
"l  c #4C2910",
"z  c #4F2910",
"x  c #4D2A10",
"c  c #4E2A10",
"v  c #402818",
"b  c #442B1A",
"n  c #492F1C",
"m  c #502910",
"M  c #532B10",
"N  c #512C10",
"B  c #532C11",
"V  c #552C11",
"C  c #562D12",
"Z  c #572E12",
"A  c #582D11",
"S  c #5A2E11",
"D  c #5A2F12",
"F  c #5B2F12",
"G  c #4D301C",
"H  c #563214",
"J  c #583013",
"K  c #5A3013",
"L  c #5F3113",
"P  c #5F3213",
"I  c #5C3214",
"U  c #5E3214",
"Y  c #5E3414",
"T  c #5E3917",
"R  c #55351F",
"E  c #603213",
"W  c #613214",
"Q  c #623314",
"!  c #613414",
"~  c #633515",
"^  c #653515",
"/  c #663616",
"(  c #683716",
")  c #663917",
"_  c #6A3917",
"`  c #6B3A17",
"'  c #673C18",
"]  c #6D3B19",
"[  c #6C3C19",
"{  c #6E3C19",
"}  c #713E19",
"|  c #563722",
" . c #573823",
".. c #5A3A22",
"X. c #413A35",
"o. c #433B35",
"O. c #413B36",
"+. c #433B36",
"@. c #453C36",
"#. c #463D37",
"$. c #443F3A",
"%. c #643E23",
"&. c #6E421B",
"*. c #74431C",
"=. c #7A441C",
"-. c #75491F",
";. c #7D4A1E",
":. c #46423D",
">. c #49433D",
",. c #644026",
"<. c #6A4226",
"1. c #644328",
"2. c #6D4428",
"3. c #6E492A",
"4. c #714727",
"5. c #7F4C20",
"6. c #724729",
"7. c #754B2B",
"8. c #7C4E2D",
"9. c #7C522E",
"0. c #4B4641",
"q. c #4E4843",
"w. c #524B45",
"e. c #564F49",
"r. c #57504A",
"t. c #5A524D",
"y. c #545452",
"u. c #5C5753",
"i. c #5C5957",
"p. c #635B56",
"a. c #6B5F56",
"s. c #655D59",
"d. c #685F59",
"f. c #67615C",
"g. c #69615B",
"h. c #6E6964",
"j. c #6E6D6C",
"k. c #726F6C",
"l. c #70706F",
"z. c #747371",
"x. c #81491E",
"c. c #834E20",
"v. c #865121",
"b. c #885222",
"n. c #81522F",
"m. c #855530",
"M. c #81766C",
"N. c #807973",
"B. c #897F78",
"V. c #8B8077",
"C. c #87817D",
"Z. c #8B837C",
"A. c #91867E",
"S. c #8E8781",
"D. c #8F8882",
"F. c #928A84",
"G. c #938E89",
"H. c #988F88",
"J. c #96918D",
"K. c #99918B",
/* pixels */
"q.O.O.O.O.O.O.O.O.o.o.o.o.#.#.o.$.o.#.o.O.$.O.O.O.o.#.#.#.f $.$.#.#.o.o.#.o.#.o.#.#.o.#.o.o.#.o.o.o.O.O.#.O.O.#.O.O.f O.",
"9 : = , < = < , < , < < < < < 3 g < g < < g , < , 5 < < g & 5 < < < , < : g < < g 3 g < < < < 0 , < < = < : < , , > & * ",
"0 , < g 5 , h 5 g 5 5 h j h h h m h j g h V 5 g < j h j h * h h h j < g < D g g h h h h h h h h g < g < h , < < < , * * ",
"0 < < g g < h g h g g j m h h m V k D h h Z g j g V V h D = V Z j V g h g F h h D M M V h h m l g g h g V > g l < < = * ",
"0 < 5 h g < c g c h g k Z M l B D A F j k W g k h D M Z D : D V V Z h M g W M m D D A D h M A D g g c g M < g h 5 < > * ",
"e g g j j 5 Z c M j g Z Z Z D Z W D E V V ( h A h I Z D W , I D Z W j V h ^ A V I D W F Z Z A A g h Z h D < h l g g , > ",
"e g g j c 5 J c Z h h D D D W D W D ^ A F _ j A M W J J / , W F D W M A h { F A W W W I D F W F h l D h I 5 l l g g , > ",
"e g h l M 5 I l D h h D W W I I ^ W ^ D E { j D M W D W ^ , W I A W M D l { W A ^ W W W D I I A h l D l I g l M h g : > ",
"e g h j k 5 Y c J j h P W I F I ( E ^ V I { c W V W F W ^ < W W D W V F c { W F ^ W ^ I Z W W P h l A l I g c c g h , > ",
"0 g g k k 5 I c J j h D W W D D ( ^ ( D W { c I V W F F ^ < W I D / V I h { ^ F ^ ^ ^ W Z W W J h l I l ~ 5 c M h g , > ",
"< g h k k 5 P k I c g I I W J Y ^ ^ { D / { h W k W F F / < ~ W D W Z I l } ^ F ( ( ^ W Z I W I h j W l I < c l g g * > ",
"0 n n R R n %.R %...| %.<.1.1.1.4.<.6.%.2.7...%...%.%.%.%.0 %.%.%.%. .%. .7.2.%.6.2.3.3...<.%.%.| ..%...%.n |  .G G 9 3 ",
">.q.$.>.0.:.w.w.w.u.i.s.s.s.h.i.d.s.d.s.s.p.u.y.w.w.q.>.>.a $.>.q.q.w.y.i.p.s.s.d.s.s.d.s.s.s.p.p.u.e.q.w.0.0.0.$.:.0.0.",
"u.y # $ % r r r r t u u t u u u u p u u t t r r r % $ $ # # $ $ $ % r r t t t u u p s u p u u u t t r t r r % % $ t y.y.",
"l.s # # $ % % % 1 2 % % % 1 7 % 1 1 % % 7 % 7 1 % % % % # # # $ % % % % % % 1 2 % % % % % % % % % % 1 1 % % $ # # u z.l.",
"l.p     X X o o o o o o o o o o o o o o o o o o X X o o X . o o o o o o o X o o o o o . o o o o o o o o     X X   r j.j.",
"i.y @ - - @ : - ; - - : : : : = : ; : ; : 9 - : - = ; ; * @ = - * ; - = - 4 , = : : , = : : = : - - ; - : @ & & O 8 i.i.",
"d 2 5 c c 5 &.I P B k ) ) [ &.' *.) ( ) _ 5.P ) Y / P ! / , ! Y P ^ Y _ H ;.` _ ) ! { { &.[ ) ) J k Y H &.g l M 5 2 s s ",
"- , g c H g ' H ~ J J { { { -.[ *.] ] ] { c.J [ ! ~ J ! { < { Y J ! ! _ Y 5.&.` { _ *.{ *.&._ { J J ~ J ' h k Z g , & - ",
"< h g c J h &.H ~ J J _ [ { -.' =.] ] ] { b.T { ! ) J ! / < ( ! J ^ ) ] T x.*.` { { =.{ &.{ { { J J ) R &.h Z M g h , > ",
"< h g Z Z c _ T ) J Y { { *.*.) =.] ( _ } b.T { ~ { D ~ { < { E J ^ ^ { Y b.*.} { { =.[ &.*.{ } ! J { J &.l Z Z h h > : ",
"< h g B I c &.T [ Y ~ } { } -.' =.] } } =.b.Y &./ ' J ~ ( < ( / J ) ) &.P x.=.} { { =.{ &.*.{ } ! Y ` T &.c Z Z h h , > ",
"< h h Z F c &.T { Y / } *.*.-.' c.} } } =.b.I { / { J / { < ( / J { ) ` T v.=.} } } x.{ *.*.{ } ) Y { T *.j F k h h , > ",
"< h h Z J h &.T { ~ / *.{ *.-.[ c.} =.} *.b.W } ' _ J W { < { ~ J { { *.J v.=.&.*.*.x.{ -.*.} *.) Y ' T } k F D j h , > ",
", h h D I j &.T _ / _ *.} *.-.[ x.=.=.} =.b.I } { { I ' { 5 _ W ! { ` &.P v.=.*.*.=.x.&.-.=.{ } { Y [ T &.x J J h h < > ",
"4 h h D ~ Z *.T { _ [ *.*.=.-.) x.=.=.=.=.c.H *.{ _ W ) { < { _ ! { { *.J x.=.=.=.=.x.&.*.=.} =.{ / { T *.J ~ J h h , > ",
", l l P ~ H -.H } _ { *.} =.} ) =.=.x.=.;.;.H *.{ { / { &.4 { { ^ { { *.H =.;.=.=.=.=._ &.=.&.=.{ { } J *.Y ~ Y h h , * ",
"e G | ..<.,.3.,.7.7.7.8.8.8.9.3.n.8.n.n.n.n.1.9.6.6.<.2.6.q 2.2.2.6.2.9.1.9.n.m.n.8.9.4.8.8.9.9.7.7.7...7.,.,.%.| G 9 3 ",
"q.>.:.>.>.>.w.w.r.p.s.s.s.s.h.f.g.g.g.g.g.s.p.t.r.w.q.q.>.p >.>.q.q.r.t.p.s.f.g.g.g.g.g.g.g.g.f.g.p.t.w.w.q.>.>.$.>.q.0.",
"y.t # $ 7 7 7 t r u u t u u u u u u u u u t r 8 8 % $ $ # # $ $ $ % r r r r u u i u u p u y y u t t r t r 7 7 % # r y.y.",
"z.d # # $ % % % % % 7 1 % % % 7 7 1 1 r % % % % % % $ % # # # $ % % 7 1 % % % % 7 1 % % 7 % % % % % % % % % $ # # u l.j.",
"l.u   o o o o o o o o o o X o o o o X X o o o o o X 8 r o o o r r o o o o X o o o o o X o o o o o o o o o o X X . t l.k.",
"i.y @ - - - : - = - ; , : , 2 : , , , , , 4 - : : = y.f.1 + * i.i.2 : : - 4 4 , , = 4 = 4 : : , : ; : - : - - - + 8 u.i.",
"f 6 g k J x &.T ) Y ! { { *.*.) x.} } _ *.b.I { ) Y V.J.H < B D.F.J / { H v.4.} { &.=.` &.*.` *.~ J ) T &.j Z Z h 2 s s ",
"- , g Z J x &.T { Y ^ *.} } -.' x.{ } { *.b.Y &.) Y Z.K.J < G D.J.Y / } J v.=.[ { { x.{ &.*.{ *.) P ' T &.l J Z g , - - ",
"4 g h k J x ' T ) J Y { { &.-.' =._ { { *.b.I { / Y A.J.Z , Z D.K.Y ~ { Y v.*._ { { =.{ *.*.[ [ Y J ' T &.l Z B h g , * ",
"4 h g j J h ' T ^ J J { ] { -.{ =._ _ { &.v.T [ ) I Z.J.J 5 c D.H.P I { I v.} { { _ *.{ &.&.` { Y J ) Y &.h J j g h , > ",
"< h g B H g ' H ! J J ] _ _ -.{ =._ _ _ _ v.H { ~ D V.G.H < l S.G.J P { H v.} _ { _ *.&.-.{ ` ` J J ~ J ` g J J g h , > ",
"< h g k B g &.T Y J Z _ _ { &.[ *.( _ _ { c.J { ~ W V.G.G < B V.F.J ~ { H v.{ _ _ ) *.{ &.{ _ _ J j ~ H &.g j B g h , > ",
"< h g k j g ' T Y k Z ~ _ _ &.' } ^ ^ _ } ;.H { I J B.F.B , B D.F.I W { H 5.{ ) / ^ { { ` { ) _ Y j T Y &.5 B k h h , > ",
"< h h B Z e _ T Y k M / _ _ ) ) { W ( / { 5.H / P D M.C.c < c N.B.J P _ Z c.{ ~ ( ^ _ _ ) _ _ ^ Z l W T { g B H g h , > ",
", h g x M g ' T Y B k ~ / / Y ) { ) { W { =.H ' Z D a.h.c 4 c d.h.D Z ) B ;./ / _ ^ _ ) Y _ ^ ^ M M I Y &.5 k H g j > > ",
", g g M Z 5 ' T Y j j E ~ / I Y { W { I W *.M ~ k k >.q.c 4 c >.>.k Z ~ j *.) W _ ^ _ ^ J _ ! ^ h j Y Y ' 5 H j g h : > ",
"q G G R R G 1. .%...| <.<.<.1.1.6.<.6.<.2.8. .<.%...a s | e R a a R ..,...9.6.%.6.6.4.<.,.1.<.<.....%...<.G R R n n 3 3 ",
"q.0.$.0.0.0.q.q.e.i.i.s.s.s.d.f.h.p.p.f.s.p.i.y.w.q.d s $.p $.s d q.w.t.u.s.s.s.g.f.s.h.s.g.s.s.i.u.t.w.q.0.0.0.#.0.0.0.",
"y.u # $ % 7 r r r r u u u u u u u u u u u t r r 1 % $ $ $ # # $ $ % r r t t t u u u u u u u y y u t r r r 7 % $ $ r y.y.",
"l.s # # $ % % 7 % 1 % % % 7 1 1 % % 7 1 % % 7 % 1 % $ $ # # # % % % % % % % % % % % % % 7 1 % % % % % % % % $ # # u l.l.",
"l.u       o o o o X o o o o o o o o o o X X o o o o o o . . . . X o X X o o o o o o o o o X X X o o o o X X X . . r j.j.",
"i.u @ & @ O - & & & + - - & - - = - * - ; = & & + = & & ; O - - & ; & & + : ; & : ; * - - & - & + & & & - O & + + y u.i.",
"O.b h l k 5 Y k D k h Z P P J J / / ( D ! { j D V W F F W < W I D W V D h { ^ Z _ ^ W W Z E I F h j I M P 5 c M g e O.O.",
"4 g g B k g J k P j h D E E D I / / ( D / { j P V W W I ^ < W W P W D P j ] ^ P ( ^ / W D ! ! J h j F c I 5 h B h g , , ",
"< g g h c 5 Y c D k g P E E J E / W / D ~ { h P V W D F ( < ^ I J W Z P j ] ^ Z ^ ^ ^ I B Y E P h j F V Y g c M g g , > ",
"< g h l l 5 Y j D k h D W W J J ( E ^ D Y { l P V W D I ^ , W W P W k E l { I D / ^ ^ W D W W I h c D c Y g j j h g , > ",
"< h g c B 5 J c k j h D D I W P / F ^ D P { j Z M W D I W < W I A E V D l { P D W W W W I F L D h h J c Y 5 j c g h > > ",
", g g j j 5 J c Z j h P D D J J E F E Z V ] h Z h W D D W , W D D I j Z h ( D Z W W W D F A D I h h J h I 5 j j g g , > ",
", 5 g h h 4 J h k h g k D D B Z E F P k V / h Z h I D Z W , I A D E h Z g / Z k I D D D M D D D g h k g J 5 h j g < : * ",
", < 5 h h 4 k g h g g k k k j M A V D j h W g M g A V V D : A Z M Z g k g D h h D V V M h M M V g g h g k < g g 5 5 * * ",
"= < < g g , h g g g g j j h j j k k V h h D g h 5 M m h V : V h j M 5 h g D h h V M V c h h h h g g h 5 j , g g < < = * ",
"= , > < < > g < 5 < < g g g g g h h h < g h < 5 < g h g h & h g g h < 5 , c 5 5 h g h g g g g g < < g , g , < < , , & * ",
"2 6 9 9 9 2 9 9 0 9 9 9 0 9 0 0 0 0 w 3 w w 3 9 3 w w w w 1 w 9 w w 3 9 3 v 0 9 0 w w w 9 w 3 w 9 9 9 9 0 2 9 3 3 2 2 - "
};
