/* XPM */
static char *b111df048b3c4e87f7af279940bf2cbeiZagNWg0XI97HKyK[] = {
/* columns rows colors chars-per-pixel */
"60 60 226 2 ",
"   c None",
".  c #0C0716",
"X  c #0E0916",
"o  c #0F0B19",
"O  c #130C17",
"+  c #140D1E",
"@  c #1A0F16",
"#  c #17111D",
"$  c #1A121C",
"%  c #1D1316",
"&  c #231316",
"*  c #2A1715",
"=  c #23191C",
"-  c #271A1A",
";  c #381E14",
":  c #2E2218",
">  c #34251B",
",  c #392919",
"<  c #1D1321",
"1  c #1A182A",
"2  c #181326",
"3  c #211623",
"4  c #241A22",
"5  c #2C1D25",
"6  c #26182C",
"7  c #24172B",
"8  c #2B1B32",
"9  c #261F31",
"0  c #321F39",
"q  c #2C2121",
"w  c #25242C",
"e  c #322423",
"r  c #352922",
"t  c #3C2D22",
"y  c #352229",
"u  c #3C2A2B",
"i  c #39262B",
"p  c #372636",
"a  c #33323B",
"s  c #352A2A",
"d  c #442313",
"f  c #492815",
"g  c #552B12",
"h  c #44331D",
"j  c #4B3A1E",
"k  c #4A351D",
"l  c #553D19",
"z  c #6A3511",
"x  c #653311",
"c  c #7A3D10",
"v  c #733A10",
"b  c #7F3F0F",
"n  c #422E26",
"m  c #442C2D",
"M  c #4A2F2F",
"N  c #433322",
"B  c #4C3827",
"V  c #563F26",
"C  c #462E36",
"Z  c #4C3131",
"A  c #523432",
"S  c #573A36",
"D  c #633F37",
"F  c #58421C",
"G  c #6A4B1D",
"H  c #7A5819",
"J  c #544225",
"K  c #5A4522",
"L  c #5A4829",
"P  c #514133",
"I  c #624C23",
"U  c #6A5426",
"Y  c #745C29",
"T  c #745925",
"R  c #69443A",
"E  c #67483B",
"W  c #774C3D",
"Q  c #6A5734",
"!  c #76533B",
"~  c #7C6328",
"^  c #7A6638",
"/  c #3E2647",
"(  c #363740",
")  c #432A4B",
"_  c #462D47",
"`  c #492D53",
"'  c #53365D",
"]  c #4E3550",
"[  c #593964",
"{  c #673E72",
"}  c #623C6D",
"|  c #564D50",
" . c #764D43",
".. c #6E5141",
"X. c #7A5746",
"o. c #6A4578",
"O. c #71457D",
"+. c #704A7C",
"@. c #63426E",
"#. c #736E73",
"$. c #87430F",
"%. c #88430F",
"&. c #815C1A",
"*. c #956B1B",
"=. c #946A1B",
"-. c #AC7B1C",
";. c #A2741B",
":. c #B17E1D",
">. c #805A3F",
",. c #886A29",
"<. c #93732A",
"1. c #997A2C",
"2. c #836B33",
"3. c #8D7335",
"4. c #967A35",
"5. c #89722F",
"6. c #A37E2A",
"7. c #A07E31",
"8. c #845342",
"9. c #8B5945",
"0. c #945C46",
"q. c #995F47",
"w. c #815E51",
"e. c #8A6148",
"r. c #98634A",
"t. c #996B51",
"y. c #91744F",
"u. c #A2654B",
"i. c #AC6B4E",
"p. c #AB6145",
"a. c #B26F50",
"s. c #AB7556",
"d. c #B57151",
"f. c #BB7553",
"g. c #BD7855",
"h. c #B37B59",
"j. c #BB7E5B",
"k. c #AB6C4D",
"l. c #A95E43",
"z. c #C27D58",
"x. c #C17C57",
"c. c #B9851D",
"v. c #B6821D",
"b. c #AC862D",
"n. c #B58D2D",
"m. c #BC922E",
"M. c #BA9A2F",
"N. c #A68934",
"B. c #B89937",
"V. c #B38D32",
"C. c #C4992F",
"Z. c #C59B33",
"A. c #CEA130",
"S. c #CBA33D",
"D. c #C8A93B",
"F. c #D3A532",
"G. c #DAAB32",
"H. c #DCAE39",
"J. c #D4AA37",
"K. c #DAB532",
"L. c #DDBA3B",
"P. c #DDB43A",
"I. c #C5A32F",
"U. c #E1AF33",
"Y. c #E4C13E",
"T. c #BD825D",
"R. c #AE9349",
"E. c #BFA252",
"W. c #988046",
"Q. c #C3825D",
"!. c #C9865E",
"~. c #CBAA46",
"^. c #CFB249",
"/. c #DCB244",
"(. c #DCBC42",
"). c #D5B745",
"_. c #DAB958",
"`. c #CDAC4C",
"'. c #E0B644",
"]. c #E3BB4B",
"[. c #E0BE44",
"{. c #E4BE51",
"}. c #CD8B62",
"|. c #C68B62",
" X c #D08E64",
".X c #D29266",
"XX c #D7976A",
"oX c #D7986A",
"OX c #D9986B",
"+X c #D8976A",
"@X c #CE9166",
"#X c #DFC049",
"$X c #E4C44C",
"%X c #E1C146",
"&X c #E5C353",
"*X c #E9C355",
"=X c #E9CB55",
"-X c #E6C45A",
";X c #E9C75E",
":X c #EACD5E",
">X c #E6CA58",
",X c #EBD05F",
"<X c #734D81",
"1X c #754781",
"2X c #7C558A",
"3X c #7F5890",
"4X c #7C7A83",
"5X c #835B92",
"6X c #825690",
"7X c #81578F",
"8X c #8B619B",
"9X c #8E689F",
"0X c #817F88",
"qX c #8F67A0",
"wX c #976EA8",
"eX c #9C74AE",
"rX c #9F77B0",
"tX c #9F78B1",
"yX c #A17AB3",
"uX c #918F97",
"iX c #ADABB4",
"pX c #9A98A1",
"aX c #BAB8C2",
"sX c #CDCCD5",
"dX c #C2C0C9",
"fX c #DAD8E1",
/* pixels */
"                                                                                                                        ",
"                                                                                                                        ",
"                                  o + + # # # # # + +         + + < + < + +                                             ",
"                              2 2 r J ^ ^ 5.5.~ U J r 4 3 r J Y 2.3.3.3.2.Q P t 4 +                                     ",
"                            # : 3.^.>X:X=X,X=X$X#X(.P.B.B.`.{.;X;X;X;X;X;X;X{._.R.,.n $                                 ",
"                          o r N.=X,X:X,X:X,X,X=X,X:X,X:X;X;X;X-X{.{.{.{.{.{.;X;X;X*XS.U <                               ",
"                          4 N.#X,X:X$X#XY.(.#X#X#X#X[.'.'.P.H.H.H.G.G.G.U././.].;X;X;XJ.L +                             ",
"                        # I #X,X:X#XK.K.K.K.K.K.K.K.K.G.G.G.G.G.G.G.G.G.G.U.G.F.U.].;X;XZ.e                             ",
"                      + : B.=X=X(.K.K.K.K.K.K.K.K.K.K.G.G.G.F.G.G.G.G.G.G.G.G.G.G.G.'.;X].Y +                           ",
"                      + Y #X>X(.K.K.K.K.K.K.K.K.K.K.G.G.G.G.G.G.G.G.G.G.G.F.G.G.G.G.G.].;XV.3                           ",
"                    + e I.#X#XK.K.K.K.K.K.K.K.K.K.K.K.G.G.G.G.G.G.G.F.G.G.G.G.G.G.G.G.G.].J.N +                         ",
"                    2 Y K.K.K.K.K.K.K.K.K.K.K.K.K.K.G.G.G.G.G.G.G.G.G.G.G.G.G.G.G.G.G.G.G.G.Y +                         ",
"                  + q M.D.I.M.I.K.L.L.K.L.L.L.L.L.P.H.H.G.G.G.G.J.H.G.G.G.J.J.U.G.G.G.G.G.G.n.=                         ",
"                  + q L L Q W.E.>X>X>X>X>X:X:X>X:X;X;X;X-X-X-X&X{.{.].'./.7.Y Y ,.<.b.C.A.J.F.B +                       ",
"              + q J ^ R.^.>X,X,X:X,X,X,X:X:X:X:X:X;X;X;X;X;X;X;X;X;X;X;X;X{.`.R.y.^ Q S B J Y J +                       ",
"            # J B.&X,X,X,X,X:X:X:X:X:X,X:X:X:X:X;X;X;X;X;X;X;X;X;X;X;X;X;X;X;X,X,X:X;X_.~.y.Q u < +                     ",
"        + $ ~ ).>X,X,X>X:X:X:X,X:X:X:X,X:X:X:X:X;X;X;X;X;X;X;X;X;X;X;X;X;X;X;X;X;X;X;X;X;X;X;X`.1.V +                   ",
"      + : 4.>X,X,X,X:X,X:X,X:X:X:X:X:X:X:X:X:X:X;X;X;X;X;X;X;X;X;X;X;X;X;X;X;X;X;X;X;X;X;X;X;X;X*XS.T <                 ",
"    + r N.>X,X:X:X,X:X:X:X:X:X,X,X,X,X,X:X:X:X;X;X;X;X;X;X;X;X;X;X;X;X;X:X;X;X;X;X;X;X;X;X;X;X;X;X;X/.<.q               ",
"  2 r B.,X,X,X:X>X>X=X>X>X#X$X).#XD.E.D.D.~.D.S.~.D.~.~././.'.].].].].].*X{.-X*X;X;X;X;X;X;X;X;X;X;X;X'.b.N +           ",
"# + <.Y.&X#X).D.B.N.N.~ Y L V N , r > q q q q q q e > t N N B L I T Y ,.<.6.b.V.Z.S.S./.[.{.*X;X;X;X;X;XP.m.n +         ",
"# 2 J Y I V t > = 4 1 # < 6 i m C B A B A Z Z Z M m m m i i y 5 5 4 $ + < 3 3 - 5 e t B L Y ,.N.B.~./.'.U.U.<.<         ",
"+ 2 o o + +   + <  .! u ( | X.s.T.g.g.g.g.g.g.f.d.f.d.d.a.a.a.i.u.S q | ] ! 9.>.W y 2 2 + 2 + + = e B I ~ 1.,.$ +       ",
"                < q.L w pXsXpXs.@X@X.X@X@X}.g.}. X X}. X!.}.}.}.9.1 4XsXiXw.f.f.f.S 1 9 1 7 C Z 5 + + + + < < + 2       ",
"                < W u a dXfXaXy.+XXXXXXX+X}.p.!.+X+XoXoXoXOXoXOX..1 iXfXsX#.T.f.d.W  .a 1 1 8.f.i.D < +                 ",
"                + D s w #.iX#.X.+XXXXX+X Xp.l.x.+X+XXX+XXXXXXX+XE a #.iX0XP @X}.f.f.i.0 1 p u.f.f.a.i +                 ",
"                + A | uX( w 1 y.OX+X+X+Xz.l.l.z.+XXXXXXXXXXXXXOXX.uXuXw 1 P @XoXx.f. .1 p 9.f.f.f.d.m +                 ",
"                + i w.uXa 2 t T.+X+X+X+X.X}.}..XOXOXXXXXXXXXXXOXT.| a 2 w y.oXoXQ.a.S _ r.f.f.f.x.8.< +                 ",
"                < < 9.0.....h.XX+XXXXXXX!.oXOXOX|.T.XXXXOXXXXXXXXXs...E t..X+X+XQ.f.i.a.d.d.x.f.q.y <                   ",
"                  + A x.XXOXOXXX+X+XXX.XR L e.^ B ! XXXXXXXXXXXXXXOXOXOXOX+X+X.Xx.d.d.f.R S D A 6 + +                   ",
"                  + 3 8.|..XXXXX+XXXXXXX|.e.! ! t..X+XXXXXXXXXoXXXXXXXXXOXOX+Xz.f.f.f.f.8.3 + + +                       ",
"                    + 5 0.!.XXXXXXXXXXXXoXOXOXOXOXOXXXoXXXXX+XXXXXOXXXXXXX.Xz.d.f.f.d.0.y +                             ",
"                      + 5 8.x.}..XXXXXXXXXoXOXOXoXOXoXXX+X+X+XXXXX.XXX.X}.f.f.d.f.i.R 3 +                               ",
"                        # < S u.g.x.x.!.!.!.!.}.}. X X.X X.X X X}.}.z.g.f.f.f.i. .i < +                                 ",
"                          + $ 5 D q.d.f.f.f.f.f.f.f.f.g.x.f.g.f.f.f.f.f.i.0.R y < +                                     ",
"                              + # 3 m S W 8.0.r.r.u.u.u.u.q.0.0.8. .D M e < + +                                         ",
"                                  O o % 3 6 8 7 e e y e 5 6 5 3 - e , = + O                                             ",
"                                  - % j k o.+.i =.;.*.*.h [ +.p &.-.-.*.- % O                                           ",
"                              O t <.: H u 8X2Xt -.c.c.:.n 3X8Xp *.c.c.-.> Y T =                                         ",
"                            X N C.1.: =.u 9X+.h :.:.c.;.i qX8Xp ;.c.:.:., &.G.,.=                                       ",
"                            > m.K.,., =.C wX@.F c.c.c.&._ eX6Xu -.c.c.v.k G G.G.,.O                                     ",
"                          % 1.G.G.I : l _ wX[ , G I H k ' rX<X5 &.*.*.;.F h F.G.F.F X                                   ",
"                        O I G.G.G.K 8 ` / [ ) @.<X+.@.) ` <X] ) ` _ _ C y - m.G.G.n.-                                   ",
"                      $ @ K 6.C.F.j ) 8X2Xo.8XeXyXtXrX5X[ [ @.7X8X8X1X1X{ 3 <.G.G.G.I X                                 ",
"                    - <.1.T k h J % p 8XyXyXyXrXtXtXtXtXrXeXyXyXrXwX<XO.o.7 K G.F.C.,.O                                 ",
"                  X j A.G.U.F.n.,., # ' 5XwXeXeXtXtXtXtXyXyXrXeXeX7XO.1X[ O - K j h h k h @                             ",
"                  O - k I ,.b.A.G.T X @ p ' @.+.2X2X5X5X7X7X7X<XO.} [ ` 7 O F <.b.m.A.F.F.N .                           ",
"                  @ X.r.E A t N K -       O 7 8 7 7 8 8 8 8 8 8 8 7 @ O   O <.G.A.C.n.6.<.h X                           ",
"                  e h.Q.Q.T.h.r.i .       < [ { 0 .         X ) { ) O       : B N t m B M 5 O                           ",
"                X m j.Q.Q.|.Q.h.e         3 { O.8           X ) 1X[ +       X - 0.s.h.T.g.s.e                           ",
"                  $ m E 9.t.s.S O         7 O.} <             8 O.} $         m T.Q.T.Q.Q.Q.Z X                         ",
"                      X O < - O         X 0 1X[ +             < { { 3         u T.Q.Q.T.Q.s.e                           ",
"                                        X 8 ` 8 X             + 0 / < X       = R E E R S u @                           ",
"                                      O ; f f ; O           O * g g f & X         X                                     ",
"                                      @ x %.%.z @           X d $.$.b *                                                 ",
"                                      O g %.%.z @           X d $.$.v %                                                 ",
"                                      X d $.$.x O           X d $.$.x O                                                 ",
"                                  O @ % f $.$.x @           X d $.$.z * & O                                             ",
"                                  * x v c $.c g @           o ; c c c v z d O                                           ",
"                                  & * * * * * & X             @ & & & & * % O                                           "
};
