/* XPM */
static char *wall1672843637[] = {
/* columns rows colors chars-per-pixel */
"59 60 148 2 ",
"   c #1E2126",
".  c #1E242D",
"X  c #1E2334",
"o  c #22252D",
"O  c #24292F",
"+  c #232632",
"@  c #252A34",
"#  c #292B35",
"$  c #23263A",
"%  c #252B3B",
"&  c #2A2D3B",
"*  c #302E3B",
"=  c #293036",
"-  c #2C313D",
";  c #31333F",
":  c #272D42",
">  c #2A2E42",
",  c #2C2E4A",
"<  c #332F46",
"1  c #2D3343",
"2  c #2E334B",
"3  c #2F3A4E",
"4  c #323544",
"5  c #393544",
"6  c #333945",
"7  c #393846",
"8  c #32364B",
"9  c #38364C",
"0  c #343B4C",
"q  c #3A3C4D",
"w  c #2F3451",
"e  c #323651",
"r  c #353B52",
"t  c #3A3E53",
"y  c #373D59",
"u  c #3A3F5C",
"i  c #3C3F60",
"p  c #403D52",
"a  c #413C59",
"s  c #37404E",
"d  c #39414D",
"f  c #364053",
"g  c #3C4354",
"h  c #3F4855",
"j  c #3D445A",
"k  c #3E485B",
"l  c #3E4462",
"z  c #424454",
"x  c #4A4657",
"c  c #414956",
"v  c #42465B",
"b  c #4A475A",
"n  c #434B5C",
"m  c #4B4D5E",
"M  c #414663",
"N  c #454C62",
"B  c #4B4D62",
"V  c #404668",
"C  c #464C6B",
"Z  c #494F6D",
"A  c #524E63",
"S  c #534E6C",
"D  c #465164",
"F  c #4A5265",
"G  c #46516A",
"H  c #4D556A",
"J  c #4E596C",
"K  c #515365",
"L  c #52566B",
"P  c #59556B",
"I  c #535A6D",
"U  c #5A5A6D",
"Y  c #4C5473",
"T  c #4F5975",
"R  c #4F577B",
"E  c #525772",
"W  c #545D72",
"Q  c #595E73",
"!  c #525B7B",
"~  c #585F79",
"^  c #605E73",
"/  c #57606F",
"(  c #556174",
")  c #5A6276",
"_  c #576379",
"`  c #5B657A",
"'  c #5D697D",
"]  c #636176",
"[  c #61667C",
"{  c #68657A",
"}  c #626A7D",
"|  c #6C697E",
" . c #555E81",
".. c #556081",
"X. c #5C6582",
"o. c #5E6A82",
"O. c #5B668A",
"+. c #5D698B",
"@. c #5E6A90",
"#. c #606680",
"$. c #636D83",
"%. c #6A6E85",
"&. c #656E8A",
"*. c #686F89",
"=. c #716F86",
"-. c #657186",
";. c #697286",
":. c #66728A",
">. c #6B748B",
",. c #6D798D",
"<. c #747187",
"1. c #73758D",
"2. c #727A8E",
"3. c #626E90",
"4. c #667093",
"5. c #6C7691",
"6. c #6D7A93",
"7. c #717791",
"8. c #737C94",
"9. c #787F95",
"0. c #747E99",
"q. c #787F99",
"w. c #758195",
"e. c #798196",
"r. c #75829B",
"t. c #7A849C",
"y. c #7D889D",
"u. c #7686A1",
"i. c #7D86A1",
"p. c #7E89A2",
"a. c #7E8CA9",
"s. c #81879F",
"d. c #81899F",
"f. c #8087A1",
"g. c #828CA4",
"h. c #898FA5",
"j. c #848EA8",
"k. c #888FA9",
"l. c #8491A6",
"z. c #8691AB",
"x. c #8A93AC",
"c. c #8C98AE",
"v. c #8C96B1",
"b. c #8D9AB2",
"n. c #9097B2",
"m. c #929BB4",
"M. c #939EB9",
"N. c #92A0BD",
/* pixels */
"d.p.p.t.i.r.w.8.7.2.>.>.%.$.[ ~ F W j - | w.e.w.w.e.e.e.w.e.w.<.2.| } } } ) / ; h F I J J _ J T J H D f 8.x.l.l.g.z.j.",
"y.i.u.r.q.q.8.7.7.>.>.-.$.[ ` ` W I f c >.>.2.w.2.2.w.w.| w.;.} } } } } } ) / d 1 N N B F F J D D F g h p.g.g.g.g.g.p.",
"t.t.r.q.8.8.8.,.>.-.-.$.' _ _ W W F q ) -.U ) >.| w.} w.;.| } } } } ` ] ) / / z $ f v v n n n v k f # m a.w.w.p.i.i.p.",
"9.8.6.7.5.>.-.$.$.' ' ( Q Q _ I I n h ] { / ) } } | } } } } } } [ ) ] ) / / U x X X 1 0 3 2 2 1 : $ o _ r.e.r.u.r.t.r.",
"1.:.:.-.-.$.o.o.[ } _ D I ~ W I J t c ` ] ` { [ [ [ } ] } } } / ) / / ) I U L d @ @ X X X % @ $ + @ @ W 6.8.r.6.8.6.6.",
":.:.:.-.&.o.$.$.` ' Q F I W W H F 1 m Q ) ) ` ) ] ) ` [ } / / / ) ) U U I K A 1 @ @ @ @ + # # # # # o s 5.:.6.5.5.>.5.",
":.;.-.$.$.o.' ` ` ` ) _ W I I H j & K I U ) / / / ) ) ) / / / / U I U K K K c # @ = - - 2 8 0 0 0 q 1 + W :.:.5.>.>.:.",
"$.$.$.o.o.' ' ` ` ) W W W I H H - - K H K / ) I U / Q U / U / / U K K A m B 4 @ 6 3 8 0 r f g j j h v - 1 &.-.:.:.:.:.",
"$.$.} o.' X.` ` ) ( I I I J Z e + 1 x F K m U Q I I U I Q U I I L K m b m z @ 1 8 0 f f g c v j j v n n @ D o.$.&.-.$.",
"' $.' ' _ ' ( ( ( W I W J j 2 # O # 4 z n m F K ) / U K K K m K b B b c t ; @ q 0 s g v n n D D F D F H h - ! ' ' o.$.",
"` o.` ' ( _ W / W W H M e , % # & - O 4 t z m m K K m m b m b m z p q q 9 # , q h g n n B D F H F J J J L 6 f ! ' o.+.",
"` ` _ W ( ( _ _ F j e 1 , & % 1 q f f - # 9 t p m m z v z p t q q 9 4 1 # # 0 g v n N F F H J I W W W ( _ F 1 N _ ` ) ",
") ( Q _ ) ( H l 3 2 2 2 % & q j n N F F g & < 6 q 9 q 9 9 4 4 & # # # @ O - t c n F F L I W ) ` ' ) ` ' ` ' h 2 C I _ ",
"} o.' ! C j w 2 2 2 , & - f n n F L I ) ` F 6 @ & 1 & # % & - 1 2 q 0 6 @ 6 v n F J I F ) } } $.-.-.-.} -.-.) 4 r N W ",
") ' N 8 2 w w 2 w > @ 1 f n N H I ) } $.} ;.' n % O O - 4 0 t f f g g g # 0 D F J ( ) ) $.-.-.>.,.,.>.,.:.>.-.J 1 j V ",
"W F 2 : 1 2 2 2 : @ 1 f v D J W _ ` >.2.,.1.>.o.v & # 8 q f j v v t n g # j F L W ) [ -.:.>.,.8.2.8.w.8.8.,.,.:.s 1 u ",
"B N , , , e 2 @ O 1 0 j D J ( ( ' -.>.w.u.w.e.$.N 2 # r f v v N F N F z # c J W ` [ $.:.,.8.w.e.r.i.i.y.u.r.6.5.' = e ",
"w e w 8 , # + O # f N c N W ` o.:.,.8.8.y.l.g.$.G 8 1 g c n N H H K W t % j D W ' $.;.6.8.r.e.t.f.p.p.p.g.u.r.6.:.f % ",
", w > @ # 6 v 1 + r D h F J ` -.5.6.t.y.r.r.r.' C 8 1 j M F F I I W J 0 & y v H I ' >.w.r.t.p.l.j.l.z.x.z.i.q.$.W Z % ",
"% $ & n $.q.r.` @ 1 g n H I ( ' :.6.0.r.u.6.6.o.Z 6 0 n m B I W W H n - O 1 f v H ( ` :.8.r.l.z.c.b.v.z.u.>._ ! T T t ",
"& I r.z.z.g.t.q.h @ e u N H _ o.:.6.r.r.w.6.o.T Z 1 q k k N N n N k e @ # + & y l H _ o.-.9.u.a.j.p.u.6.O.....! R H % ",
"g.m.b.z.f.s.q.8.` # & 2 f l C Y ! O.3.4.@.O...T M % 1 0 r j j v j 8 @ + 1 1 1 & r l Z T X.:.r.y.u.4.&.+.X.E ....T % + ",
"m.x.z.g.t.t.q.>.%.h o @ % - q j l G T ! T k h ; # @ & 2 8 8 2 0 - + % 1 q r j q = 1 V H Y T o.:.u.&.O.@.+...O.C & n r.",
"g.j.g.y.t.8.7.>.$.H # @ @ . + O . @ @ @ . X X @ # @ + # % @ @ + @ % 1 0 j j j f 8 @ o 0 C R R ! O.+.O.@.@...0 6 >.b.M.",
"8.p.y.r.8.7.>.-.` W 0 O % 1 1 1 2 4 4 1 4 2 4 4 1 : % % $ X @ @ @ - 0 h k f f 3 @ @ 6 - + r H ! ..+.+...N # F p.v.z.l.",
"p.t.w.8.>.&.' ` ( I q # 8 0 0 0 f t f s f r q 0 3 6 1 1 - % X + @ 1 r 0 r y 1 + s ' r.6.j . # 6 u v 0 &   4 u.y.u.p.p.",
"8.8.7.:.o.o.' _ ( H 8 - 0 s f t g g j g g f f f 0 q 3 1 1 : - X + - 1 8 1 # 6 ` w.r.y.a.r.m . O # 4 h F h f 0.w.r.0.0.",
">.>.-.-.o.' ' ( ( F ; 6 j j c v v v v m N n v v g g q q 3 1 1 % + @ % @ = J 6.r.p.,.r.z.u.w.; @ q D ( $.' j 5.w.8.6.6.",
";.&.$.o.' ' ~ W J n - 0 v n C B F v n L K H F F B n v z s 6 4 % + @ @ h $.0.r.r.u.y.g.z.x.p.J @ k N ( w.,.n -.6.} } 6.",
"$.$.o.' ' ~ W W J g - j F F H I I F L ( Q I I I H F D n j f 6 % o = J 5.5.7.q.r.p.g.j.z.c.x.5.1 h T -.y.u.n ' ,.$.' :.",
"' } #.` Q W I I m 0 1 v n F Q Q ) ] ` ` [ [ ` ) W L F F n r & X # ( >.:.5.8.t.y.p.p.l.x.x.v.p.D s ( :.r.w.s ` -.-.-.o.",
"` ` ~ ~ W I N n j 1 - n n F H ) [ $.#.$.#.#.[ [ ) ) W F g 1 $ + F :.-.>.6.q.r.i.p.j.k.z.x.c.c.' 6 J ' 6.X.- _ o.o.' o.",
"Q W W W L D g g s @ 6 N F D F H Q $.%.$.*.*.%.#.| ` K j 4 % X c $.-.:.>.8.0.i.i.i.g.j.k.x.c.n.i.v r H T V & J W ` ) ' ",
"U J F C v j g 8 : @ 8 D F H J L J I ` $.7.7.7.*.[ H k 8 > $ 6 } $.:.:.,.8.0.t.i.p.g.g.k.x.c.n.j.` 1 j u 1 o v G G W _ ",
"m n n c j 0 : # @ O - M N F L ( W I W Q ^ [ [ Q F v 0 2 % & W o.$.-.:.,.6.q.t.i.f.g.g.j.k.k.v.k.6.s + 1 j g 6 v D n D ",
"h j g 8 1 : $ # - 1 O - M M C J W ) W I Q ` _ E v r 2 , # F ' ' $.-.:.>.9.0.e.t.f.i.g.j.k.k.k.n.w.J & D ` ,.J 1 j m j ",
"0 3 1 : % + - f k v k 6 - M H Z C J ~ ) W W ) f 8 e e % j ` _ ' $.' #.>.6.9.q.q.t.t.f.g.k.k.k.v.p.+.0 m W -.8.n % r j ",
"% % $ @ @ 1 v h g n D J n 6 r Z Z C C Z W Q H r y r # 6 Q I ) ` ' [ } :.>.,.9.q.s.t.f.f.f.g.k.k.i.$.n q I ` >.:.0 % , ",
"+ # 1 6 @ 6 F m k H L L W I c 0 v Y Y N V Z N u j - & H W I _ ) } $.$.$.;.1.2.9.9.q.t.t.f.f.f.k.8.' ( 6 D W ' $.J $ % ",
"g W >.5.H - j F J ( _ ( ` ( ) H q q M Y M M M l 1 o N H J W I _ ` o.' $.$.:.>.2.7.9.9.q.q.t.f.g.,.' ' 8 h F J T H 0 o ",
"1.i.g.i.r.W - M ( ' $.:.>.:.%.} ' N 6 0 N V y % o f F F J J Y W W ` ' ' ' $.;.:.>.>.8.8.e.e.8.-.;.' ' j : j v j r 0 0 ",
"8.e.9.%.t.p.W 4 G ' ,.w.q.w.8.6.>.$.W g & 8 m I ; h F N F v B W Q Q ` ` ` ' $.-.:.1.,.,.>.$.` :.7._ o.v # : : 1 q F $.",
"1.8.q.%.9.g.u.I 1 H $.8.s.q.9.d.w.,.' H - I >.r.K 0 F N C F J J I W ) ) ) ` ' ' $.$.' ` _ o.-.$.-.' Q M - + ; n I $.:.",
"1.7.8.q.r.e.y.r.n r Y o.r.7.$.$.` G l y 8 I ` $.( s N D N D F J H I I W Q W _ ) _ I ( ) ' W W J J ` C j # ; N W ` } o.",
"*.>.,.7.8.8.e.8.>.6 i C $.+.l V l l e & o t F W ( g n n D D N F F J J I W W T J H N H H C M M M l j V 0 @ j F E W ` _ ",
"} &.:.>.5.5.:.:.,._ % l Y E C V y 8 1 c K c 0 f n s h n N n n F F H F Z F G C N M j j l j l M k v l j O - k j N I W ` ",
"` [ } } #.$.$.&.:.$.4 # r t r r c U *.r.g.l.w.F 1 - 0 D v r k N M v v j j j j j v j j l l j j j 0 8 & O 0 f q j H H W ",
"W W ` ' ' $.#.$.&.' t O & 0 c H ` $.>.w.r.p.v.v.&.4 @ 0 r 8 0 q r y r y y u i j j j j r 0 8 1 - - 6 % + 1 f r N B H H ",
"E W W _ ' o.o.X.' _ 8 - f v m F J ) -.>.w.r.y.z.c.u.n + 1 2 2 8 2 8 7 8 8 4 1 1 * * # # & 4 f n F I H - X 1 j k N F H ",
"H W W W ~ _ ` ` ` T 1 4 0 ; j D J ( ( ' :.w.t.y.d.g.p.J @ O # @ # - ; ; 5 7 7 4 ; p # & 0 0 g J W ( $.J O X 2 g k D C ",
"n F J H J H H H B V & 4 0 f k D F J ( ` ' 5.8.w.t.t.r.q.( % @ * 4 p p x x x m x z p 7 & f j v ) ' ;.$.,.F   X : 0 r j ",
"e t j j t j u r y e % : 1 f j n D H I ( ` ` -.>.,.,.8.,.,.J @ 7 p z x x K P P P S A q & j m I ' :.,.8.r.w.s X % X : : ",
"$ $ % : : 2 > 2 1 & % % : 1 0 t n F F I ( ) ` ' o.:.-.-.' I = p b A P ^ ^ { { ^ ^ P p # r k F W X.-.,.6.5.T # X . o o ",
"c c s 0 6 4 - & # + O o X X % > 0 f j F H D ( _ _ ` ` ( ` m * z A P ^ =.=.<.<.<.| P 9 + % 2 e V Y T ! R R l @ f I I F ",
"x.z.g.u.r.w.>.&.' ) J F g 0 ; # : 1 2 r u f n D N B M u f 8 * x b A P ^ =.1.1.<.P r % O s N J s & & f h - ; -.p.b.m.v.",
"m.n.b.v.x.h.j.h.g.s.r.8.6.:.) c # # - 1 2 3 r e 8 2 2 , : @ O = 9 a A P ^ ^ ^ P a 4 s ,.l.v.x.p._ & n w.- I N.N.N.M.N.",
"c.c.z.x.k.g.g.f.t.f.q.9.7.#.2.} J > O + = O + @ 1 6 f h c c c d 5 < < 8 v B S a r 6 :.j.g.l.p.j.g.>.v 6 - 5.M.m.b.n.b.",
"z.x.z.j.g.g.f.f.q.q.8.7.>.>.:.%.#.W 1 # O - D / } ,.w.r.y.e.y.w.>.} J m 6 6 9 9 & ` 8.7.w.t.y.r.w.6.;.g 6 p.b.v.b.z.8.",
"k.z.j.g.g.f.s.t.9.9.8.7.>.;.%.$.' ` m O = ' y.g.l.l.l.l.d.e.2.e.d.e.2.1.} / ; o D ` } :.,.>.-.>.-._ ) n F v.c.c.x.j.e.",
"g.g.p.i.t.t.e.e.8.8.6.>.;.%.#.` I W m @ m w.y.t.y.y.y.e.e.w.} ;.2.2.;.;.| } K = F I I _ ' ( J ' ( ( I g ' v.x.x.x.x.k."
};
